<?xml version="1.0" standalone="no"?>
<!DOCTYPE svg PUBLIC "-//W3C//DTD SVG 1.1//EN" "http://www.w3.org/Graphics/SVG/1.1/DTD/svg11.dtd" >
<svg xmlns="http://www.w3.org/2000/svg">
<defs>
  <font id="iconfont" horiz-adv-x="1000">
    <font-face font-family="iconfont"
      units-per-em="1000" ascent="1000"
      descent="0" />
    <missing-glyph horiz-adv-x="0" />
    <glyph glyph-name="add"
      unicode="&#xEA01;"
      horiz-adv-x="1000" d="M500 1000C224 1000 0 776 0 500C0 224 224 0 500 0C776 0 1000 224 1000 500C1000 776 776 1000 500 1000zM762 545V454L546 454V238H455V455L239 455V546H455L455 762H546V546L762 545z" />
    <glyph glyph-name="add1"
      unicode="&#xEA02;"
      horiz-adv-x="1000" d="M934 567H568V933C568 970 538 1000 500.9999999999999 1000S434 970 434 933V568H67.9999999999999C30.9999999999999 567 0.9999999999999 537 0.9999999999999 500S30.9999999999999 433 67.9999999999999 433H433V68C433 31 462.9999999999999 1 500 1S567 31 567 68V433H932C969 433 999 463 999 500S971 567 934 567z" />
    <glyph glyph-name="adv"
      unicode="&#xEA03;"
      horiz-adv-x="1000" d="M651 890C617 890 589.9999999999999 863 589.9999999999999 829C589.9999999999999 795 617 768 651 768C685 768 711.9999999999999 795 711.9999999999999 829C712 863 684 890 651 890zM651 1000C725 1000 786.9999999999999 953 811 888H926C961 888 990 861 990 829C990 796 961 770 926 770H811C786.9999999999999 705 723.9999999999999 658 651 658S514 704 490 770H74C38 770 10 796 10 829C10 862 39 888 74 888H490C514 953 577 1000 651 1000zM321 561C287 561 260 534 260 500C260 466 287 439 321 439C355 439 382 466 382 500C382 534 354 561 321 561zM321 671C395 671 457 624 481 559H926C961 559 990 532 990 500.0000000000001C990 467.0000000000001 961 441.0000000000001 926 441.0000000000001H481C457 376.0000000000001 394.0000000000001 329 321 329S185 376.0000000000001 161 441.0000000000001H74C38 441 10 467 10 500C10 533 39 559 74 559H160C184 625 247 671 321 671zM651 232C617 232 589.9999999999999 205 589.9999999999999 171.0000000000001C589.9999999999999 137 617 110.0000000000001 651 110.0000000000001C685 110.0000000000001 711.9999999999999 137.0000000000002 711.9999999999999 171.0000000000001C712 205 684 232 651 232zM651 342C725 342 786.9999999999999 295 811 230H926C961 230 990 203 990 171C990 138 961 111.9999999999999 926 111.9999999999999H811C786.9999999999999 46.9999999999999 723.9999999999999 -1e-13 651 -1e-13S514.9999999999999 46.9999999999999 490.9999999999999 111.9999999999999H74C39 111.9999999999999 10 138.9999999999999 10 171C10 204 38 230 74 230H490C514 296 577 342 651 342z" />
    <glyph glyph-name="airplane"
      unicode="&#xEA04;"
      horiz-adv-x="1000" d="M500 53L649 0L649 91L553 170L553 398L986 258.9999999999999L986 368.9999999999999L553 631L553 947C553 976 529 1000 500 1000C470 1000 447 976 447 947L447 631L14 369L14 259L447 398L447 170L351 91L351 0L500 53z" />
    <glyph glyph-name="arrow-down"
      unicode="&#xEA05;"
      horiz-adv-x="1000" d="M882 809L500 427L118 809L118 809L0 691L500 191L1000 691L883 809z" />
    <glyph glyph-name="arrow-left"
      unicode="&#xEA06;"
      horiz-adv-x="1000" d="M809 118L427 500L809 882L809 882L691 1000L191 500L691 0L809 117z" />
    <glyph glyph-name="arrow-right"
      unicode="&#xEA07;"
      horiz-adv-x="1000" d="M191 882L573 500L191 118L191 118L309 0L809 500L309 1000L191 883z" />
    <glyph glyph-name="audio"
      unicode="&#xEA08;"
      horiz-adv-x="1000" d="M510 847C658 847 792 740 792 609L792 547C826.0000000000001 525 848 487 848 443.9999999999999V416C848 362 813 316 765 298.9999999999999L765 258C765 202 727 166 670 166H613V218H670C703 218 710 233 710 258L710 291H696V569H720C727 569 734 568 741 567L741 609C741 708 637 795 509.9999999999999 795C383 795 288 699 288 609L288 569H306V291H280C210 291 153 346.9999999999999 153 416V443.9999999999999C153 497.9999999999999 188 543.9999999999999 236 561L236 608.9999999999999C236 741 362 847 510 847zM571 250C586 250 597 238 597 223V180C597 165 585 153 571 153H485C470 153 459 165 459 180V224C459 239 471 251.0000000000001 485 251.0000000000001H571zM1000 111V889C1000 950 950 1000 889 1000H111C50 1000 0 950 0 889V111.0000000000001C0 50 50 0 111 0H888.9999999999999C950 0 1000 50 1000 111z" />
    <glyph glyph-name="avatar"
      unicode="&#xEA09;"
      horiz-adv-x="1000" d="M590.9987890208033 488C590.9987890208033 491.9999999999999 590.9987890208033 495.9999999999999 590.9987890208033 499C675.9987890208033 538 735.9987890208033 631 735.9987890208033 739C735.9987890208033 884 630.9987890208033 1000 500.9987890208033 1000C370.9987890208033 1000 265.9987890208033 884 265.9987890208033 740C265.9987890208033 632 324.9987890208033 540 409.9987890208033 500C409.9987890208033 496 408.9987890208033 492 408.9987890208033 488C408.9987890208033 400 100.9987890208033 400 100.9987890208033 199C100.9987890208033 125 279.9987890208033 0 499.9987890208032 0C720.9987890208033 0 898.9987890208031 125 898.9987890208031 199C899.9987890208033 400 590.9987890208033 400 590.9987890208033 488" />
    <glyph glyph-name="bell"
      unicode="&#xEA0A;"
      horiz-adv-x="1000" d="M496 1000C534 1000 565 969 565 931C565 925 564 919 563 914C713.9999999999999 885 829 751 829 591V287L935 190V136L583 136C590 123 593 108.9999999999999 593 93C593 41 551 0 500 0C448 0 407 42 407 93C407 108 411 123 417 136L65 136V190L171 287V591C171 748 282 880 429.0000000000001 912C427 918 426.0000000000001 924 426.0000000000001 931C427 969 458 1000 496 1000z" />
    <glyph glyph-name="between"
      unicode="&#xEA0B;"
      horiz-adv-x="1000" d="M740 770L1000 500L740 230L740 450L260 450L260 230L0 500L260 770L260 550L740 550z" />
    <glyph glyph-name="bike"
      unicode="&#xEA0C;"
      horiz-adv-x="1000" d="M646 760C691.9999999999999 760 728.9999999999999 797 728.9999999999999 843C728.9999999999999 889 691.9999999999999 926 646 926C599.9999999999999 926 563 889 563 843C562 798 600 760 646 760zM208 490C92 490 0 398 0 281S92 73 208 73C325 73 416 165 416 281S325 490 208 490zM208 135C129 135 62 202 62 281C62 360 129 427 208 427C287 427 354 360 354 281C354 202 287 135 208 135zM450 552L550 652L583 619C637 565 708 532 796 532V615C733 615 683 640 646 677L567 756C546 773 524.9999999999999 781 499.9999999999999 781C474.9999999999999 781 453.9999999999999 773 442 756L325 640C308 623 300 603 300 582C300 557 308 536 325 524L458 407V199H541V456L450 552zM792 490C675 490 584 398 584 282S676.0000000000001 74 792 74C909 74 1000 166.0000000000001 1000 282S908 490 792 490zM792 135C713 135 646.0000000000001 202 646.0000000000001 281C646.0000000000001 360 713.0000000000001 427 792 427S937 360 937 281C937 202 871 135 792 135z" />
    <glyph glyph-name="bus-stop"
      unicode="&#xEA0D;"
      horiz-adv-x="1000" d="M350 783C339 783 333 782 329 782V731H351C376 731 391 743 391 758C391 776 374 783 350 783zM349 700H329V640C334 639 341 639 349 639C374 639 397 647 397 670C397 691 375 700 349 700zM339 800C362 800 377 796 389 787C398 780 404 769 404 755C404 737 392 722 373 715V714C390 711 410 696 410 670C410 654 404 642 394 634C382 622 361 617 332 617C316 617 303 618 296 619V796C306 798 322 800 339 800zM450 800V693C450 653 468 636 491 636C517 636 534 654 534 693V800H557V694C557 639 528 616 489.9999999999999 616C453.9999999999999 616 426 637 426 693V800H450zM655 800C674 800 688 796 697 791L690 773C684 776 672 781 654 781C628 781 618 767 618 754C618 737 629 729 656.0000000000001 720C688.0000000000001 708 704 694 704 668C704 641 683.0000000000001 617 638 617C620.0000000000001 617 600.0000000000001 622 590.0000000000001 629L596.0000000000001 648C607.0000000000001 641 623.0000000000001 636 640.0000000000001 636C665.0000000000001 636 680.0000000000001 648 680.0000000000001 666C680.0000000000001 682 670.0000000000001 692 644.0000000000002 701C613.0000000000002 712 594.0000000000002 727 594.0000000000002 752C594 779 618 800 655 800zM500 1000C342 1000 214 870 214 710C214 562 325 441 467 424V66H291V-1.0000000000001H708.0000000000001V66H533V424C675 441 786 562 786 710C786 870 658 1000 500 1000z" />
    <glyph glyph-name="bus"
      unicode="&#xEA0E;"
      horiz-adv-x="1000" d="M498.5000000000001 1000C265.5000000000001 1000 77.5000000000001 974 77.5000000000001 789V263C77.5000000000001 217 98.5000000000001 175 130.5000000000001 146V51.9999999999999C130.5000000000001 22.9999999999998 154.5000000000001 -1.0000000000001 183.5000000000001 -1.0000000000001H236.5000000000001C265.5000000000001 -1.0000000000001 289.5000000000001 23 289.5000000000001 51.9999999999999V104.9999999999999H710.5V51.9999999999999C710.5 22.9999999999998 734.5000000000002 -1.0000000000001 763.5 -1.0000000000001H816.5C845.5 -1.0000000000001 869.5 23 869.5 51.9999999999999V146C901.5 175 922.5 216.9999999999999 922.5 263V789C919.5 974 731.5 1000 498.5000000000001 1000zM261.5000000000001 211C217.5000000000001 211 182.5000000000001 246 182.5000000000001 290C182.5000000000001 334 217.5000000000001 369 261.5000000000001 369S340.5 334 340.5 290C340.5000000000001 246 305.5000000000001 211 261.5000000000001 211zM735.5 211C691.5 211 656.5 246 656.5 290C656.5 334 691.5 369 735.5 369C779.5000000000002 369 814.5000000000002 334 814.5000000000002 290C814.5 246 779.5 211 735.5 211zM814.5 526H182.5000000000001V789H814.5V526z" />
    <glyph glyph-name="calendar"
      unicode="&#xEA0F;"
      horiz-adv-x="1000" d="M250 550H500V300H250V550zM850 100H150V650H850V100zM850 900H800V1000H700V900H300V1000H200V900H150C94 900 50 855 50 800L50 100C50 45 95 0 150 0H850C905 0 950 45 950 100V800C950 855 905 900 850 900z" />
    <glyph glyph-name="car"
      unicode="&#xEA10;"
      horiz-adv-x="1000" d="M864.9999999999999 871C853.9999999999999 903 824.9999999999999 925 788.9999999999999 925H204.9999999999999C169.9999999999999 925 140.9999999999999 903 128.9999999999999 871L18.9999999999999 554V129C18.9999999999999 99 42.9999999999999 75 72.9999999999999 75H126.9999999999999C156.9999999999999 75 180.9999999999999 99 180.9999999999999 129V183.0000000000001H818.9999999999999V129C818.9999999999999 99 842.9999999999999 75 872.9999999999999 75H927C957 75 981.0000000000002 99 981.0000000000002 129V554L864.9999999999999 871zM204.9999999999999 340C160.9999999999999 340 125.9999999999999 375 125.9999999999999 419S160.9999999999999 498 204.9999999999999 498S283.9999999999999 463 283.9999999999999 419S249.9999999999999 340 204.9999999999999 340zM789.9999999999999 340C745.9999999999998 340 710.9999999999998 375 710.9999999999998 419S745.9999999999998 498 789.9999999999999 498C833.9999999999999 498 868.9999999999999 463 868.9999999999999 419S833.9999999999999 340 789.9999999999999 340zM124.9999999999999 606L203.9999999999999 845H788.9999999999999L868.9999999999999 606H124.9999999999999z" />
    <glyph glyph-name="check"
      unicode="&#xEA11;"
      horiz-adv-x="1000" d="M357 128L0 485L101 586L357 330L899 872L1000 771z" />
    <glyph glyph-name="checked"
      unicode="&#xEA12;"
      horiz-adv-x="1000" d="M357 128L0 485L101 586L357 330L899 872L1000 771z" />
    <glyph glyph-name="clock"
      unicode="&#xEA13;"
      horiz-adv-x="1000" d="M469.5 783C500.5 783 525.5 758 525.5 727V510H743.5C774.4999999999999 510 799.4999999999999 485 799.4999999999999 454C799.4999999999999 423 774.4999999999999 398 743.5 398H470.5C466.5 398 462.5 399 458.5 399C433.5 404 413.5 427 413.5 454V727C413.5 758 438.5 783 469.5 783zM500.5 889C400.5 889 301.5 851 225.5 775C73.5 623 73.5 377 225.5 225C298.5 152 396.5 111 500.5 111C604.5 111 702.5 151 775.5 225C927.5 377 927.5 623 775.5 775C699.5 851 600.5 889 500.5 889zM146.5 854C341.5 1049 658.5 1049 853.5 854C1048.5 659 1048.5 342 853.5 147C759.5 52 634.5 0 500.5 0C366.5 0 241.5 52 146.5 147C-48.5 341 -48.5 659 146.5 854z" />
    <glyph glyph-name="close"
      unicode="&#xEA14;"
      horiz-adv-x="1000" d="M635 500L972 837C1009 874 1009 935 972 972S874 1009 837 972L500 635L163 972C126 1009 65 1009 28 972S-9 874 28 837L365 500L28 163C-9 126 -9 65 28 28S126 -9 163 28L500 365L837 28C874 -9 935 -9 972 28S1009 126 972 163L635 500z" />
    <glyph glyph-name="day-add"
      unicode="&#xEA15;"
      horiz-adv-x="1000" d="M450 164L525 164L525 165L525 338L698 338L698 413L525 413L525 585L450 585L450 412L277 412L277 337L450 337zM850 900H800V1000H700V900H300V1000H200V900H150C95 900 51 855 51 800L50 100C50 45 95 0 150 0H850C905 0 950 45 950 100V800C950 855 905 900 850 900zM850 100H150V650H850V100z" />
    <glyph glyph-name="day-remove"
      unicode="&#xEA16;"
      horiz-adv-x="1000" d="M278 413H698V338H278V413zM850 900H800V1000H700V900H300V1000H200V900H150C95 900 51 855 51 800L50 100C50 45 95 0 150 0H850C905 0 950 45 950 100V800C950 855 905 900 850 900zM850 100H150V650H850V100z" />
    <glyph glyph-name="delete"
      unicode="&#xEA17;"
      horiz-adv-x="1000" d="M175.0000000000001 126C175.0000000000001 56 233.0000000000001 0 305.0000000000001 0H695C766 0 825 57 825 126V759H175.0000000000001V126zM632 1000L698 943H897V828H103.0000000000001V943H302.0000000000001L368.0000000000001 1000H632zM619 586L698 510L579 397L698 283L619 207L500.0000000000001 321L381.0000000000001 208L302.0000000000001 283.9999999999999L421.0000000000001 397.9999999999999L301.0000000000001 511.9999999999999L380.0000000000001 587.9999999999999L500.0000000000001 473.9999999999999L619 586z" />
    <glyph glyph-name="dialog"
      unicode="&#xEA18;"
      horiz-adv-x="1000" d="M500.4983323828693 892C224.4983323828693 892 0.4983323828693 723 0.4983323828693 514C0.4983323828693 394 74.4983323828693 287 190.4983323828693 218.0000000000001C174.4983323828693 149 127.4983323828693 109 127.4983323828693 109C214.4983323828693 109 273.4983323828693 135 312.4983323828693 164C370.4983323828693 146.0000000000001 433.4983323828693 137 499.4983323828693 137C775.4983323828693 137 999.4983323828694 306 999.4983323828694 515C1000.4983323828694 723 776.4983323828693 892 500.4983323828693 892zM268.4983323828693 453C233.4983323828693 453 207.4983323828693 481 207.4983323828693 514C207.4983323828693 549 235.4983323828694 575 268.4983323828694 575S329.4983323828694 547 329.4983323828694 514C331.4983323828693 481 303.4983323828693 453 268.4983323828693 453zM500.4983323828693 453C465.4983323828693 453 439.4983323828693 481 439.4983323828693 514C439.4983323828693 549 467.4983323828693 575 500.4983323828693 575C533.4983323828693 575 561.4983323828693 547 561.4983323828693 514C563.4983323828693 481 535.4983323828693 453 500.4983323828693 453zM732.4983323828693 453C697.4983323828693 453 671.4983323828694 481 671.4983323828694 514C671.4983323828694 549 699.4983323828693 575 732.4983323828693 575C765.4983323828693 575 793.4983323828693 547 793.4983323828693 514C795.4983323828693 481 767.4983323828693 453 732.4983323828693 453z" />
    <glyph glyph-name="dm"
      unicode="&#xEA19;"
      horiz-adv-x="1000" d="M953 980L943.9999999999998 978L660 868L340 980L40 878C28 875 20 865 20 852V46.0000000000001C20 32 32 20 47 20L56 22L341 132L661 21.0000000000001L961 123.0000000000001C973 127.0000000000002 980 136.0000000000001 980 149V954C980 968 968 980 953 980zM660 127L340 240V874L660 762L660 127L660 127z" />
    <glyph glyph-name="doc"
      unicode="&#xEA1A;"
      horiz-adv-x="1000" d="M852 878H148C122 878 101 857 101 831V752H900V830C899 856 878 878 852 878zM747 554C778 554 803 529 803 498C803 467 778 442 747 442H264C233 442 208 467 208 498C208 529 233 554 264 554H747zM747 339C778 339 803 314 803 283.0000000000001C803 252.0000000000003 778 227.0000000000003 747 227.0000000000003H264C233 227.0000000000003 208 252.0000000000003 208 283.0000000000001C208 314 233 339 264 339H747zM899 650H101V170C101 144 122 123 148 123H852C878 123 899 143.9999999999999 899 170V650zM852 978C934 978 1000 912 1000 830V170C1000 88 934 22 852 22H148C66 22 0 88 0 170V830C0 912 66 978 148 978H852z" />
    <glyph glyph-name="download"
      unicode="&#xEA1B;"
      horiz-adv-x="1000" d="M875 312V124H125V312H0V124C0 56 56 0 125 0H875C944 0 1000 56 1000 125V312H875zM812 562L724 650L562 489V1000H438V489L276 651L188 563L500 250L812 562z" />
    <glyph glyph-name="drop"
      unicode="&#xEA1C;"
      horiz-adv-x="1000" d="M500 1000C500 1000 153 612 153 350C153 156 308 0 500 0S847 156 847 350C847 612 500 1000 500 1000" />
    <glyph glyph-name="duplicate"
      unicode="&#xEA1D;"
      horiz-adv-x="1000" d="M773.9914521609826 905C773.9914521609826 957 730.9914521609826 1000 678.9914521609826 1000H178.9914521609826C126.9914521609826 1000 83.9914521609826 957 83.9914521609826 905V238C83.9914521609826 186 126.9914521609826 143 178.9914521609826 143V238V905H678.9914521609826H773.9914521609826zM820.9914521609826 857H320.9914521609825C268.9914521609825 857 225.9914521609825 814 225.9914521609825 762V95C225.9914521609825 43 268.9914521609825 0 320.9914521609825 0H820.9914521609826C872.9914521609826 0 915.9914521609826 43 915.9914521609826 95V762C916.9914521609826 814 873.9914521609826 857 820.9914521609826 857zM820.9914521609826 95H320.9914521609825V762H820.9914521609826V95z" />
    <glyph glyph-name="earth"
      unicode="&#xEA1E;"
      horiz-adv-x="1000" d="M619 559L610 559L610 559L605 562C587 574 629 591 642 593C647 680 698 561 619 559zM78 471C81 456 97 457 105 444C104 430 97 417 86 405C81 425 78 446 77 468L78 471zM500 925L502 925L505 924C514 921 521 922 527 925C632 919 727 874 798.0000000000001 804C793.0000000000001 800 789 794 787.0000000000002 785C775.0000000000001 803 748.0000000000001 792 741.0000000000002 772C763.0000000000002 756 751.0000000000002 736 741.0000000000002 719C726.0000000000002 675 705.0000000000002 734 705.0000000000002 755C708.0000000000002 772 755.0000000000002 827 721.0000000000002 797C684.0000000000002 835 699.0000000000002 775 671.0000000000002 775C636.0000000000002 792 595.0000000000002 777 580.0000000000002 737C611.0000000000002 713 623.0000000000002 748 623.0000000000002 679C618.0000000000002 658 607.0000000000002 614 578.0000000000002 620C567.0000000000002 613 569.0000000000002 598 558.0000000000002 590C575.0000000000002 579 594.0000000000002 532 558.0000000000002 543C559.0000000000002 565 532.0000000000002 575 542.0000000000002 589C527.0000000000002 595 515.0000000000001 569 512.0000000000002 599C503.0000000000002 589 486.0000000000002 583 503.0000000000002 572C514.0000000000002 580 530.0000000000002 584 528.0000000000002 565C490.0000000000002 550 596.0000000000001 444.9999999999999 449.0000000000003 431.9999999999999C408.0000000000002 403.9999999999999 469.0000000000002 394.9999999999999 459.0000000000002 359.9999999999999C460.0000000000002 342.9999999999998 417.0000000000002 307.9999999999998 426.0000000000003 342.9999999999998C403.0000000000003 344.9999999999999 417.0000000000003 357.9999999999998 400.0000000000003 362.9999999999998C381.0000000000003 334.9999999999999 445.0000000000003 302.9999999999998 427.0000000000003 279.9999999999999C437.0000000000003 269.9999999999999 445.0000000000003 262.9999999999998 450.0000000000003 261.9999999999999C438.0000000000002 256.9999999999999 441.0000000000003 246.9999999999999 443.0000000000002 237.9999999999998C405.0000000000003 224.9999999999999 398.0000000000002 305.9999999999998 362.0000000000002 317.9999999999998C366.0000000000002 327.9999999999998 376.0000000000002 324.9999999999999 388.0000000000002 315.9999999999998C378.0000000000002 342.9999999999998 375.0000000000003 371.9999999999998 367.0000000000002 395.9999999999998C340.0000000000001 371.9999999999998 352.0000000000002 414.9999999999998 336.0000000000002 424.9999999999998C312.0000000000002 473.9999999999998 285.0000000000001 399.9999999999998 250.0000000000002 381.9999999999998C248.0000000000002 362.9999999999998 258.0000000000002 327.9999999999998 228.0000000000002 322.9999999999998C216.0000000000002 359.9999999999999 192.0000000000002 389.9999999999999 193.0000000000002 429.9999999999999C160.0000000000002 420.9999999999999 168.0000000000002 462.9999999999998 122.0000000000002 466.9999999999999C106.0000000000002 462.9999999999999 83.0000000000001 457.9999999999999 79.0000000000002 477.9999999999999L76.0000000000002 475.9999999999999C76.0000000000002 482.9999999999999 75.0000000000002 490.9999999999999 75.0000000000002 497.9999999999999C75.0000000000002 723.9999999999999 251.0000000000002 908.9999999999998 473.0000000000001 922.9999999999998C482.0000000000001 919.9999999999998 490.0000000000001 915.9999999999998 495.0000000000001 923.9999999999998L500 925zM526 324C543 319 562 313.0000000000001 541 298.0000000000001C542 294 542 289 542 285.0000000000001C579 289.0000000000003 595 273.0000000000001 536 273.0000000000001L541 273.0000000000001C541 271.0000000000001 540 270.0000000000001 540 268.0000000000001C549 261.0000000000001 569 269 548 249C560 234 562 209 534 234C529 219 517 224 513 239C510 241.0000000000001 505.9999999999999 243.0000000000001 500.9999999999999 239C481.9999999999999 245 460.9999999999999 287 488 283.0000000000001C502 297 520 305 526 324zM728 261C733 255 738 250 742 243.9999999999999C744 244.9999999999999 747 246 748 248.9999999999999C752 244.9999999999999 751 239.9999999999999 747 238C756.0000000000001 226 764 213.9999999999999 776.0000000000001 203.9999999999999C754 188 740.0000000000001 213.9999999999999 725.0000000000001 223.9999999999999C712.0000000000002 203.9999999999999 685.0000000000001 208.9999999999999 669.0000000000002 218.9999999999999C694.0000000000002 238.9999999999999 654.0000000000002 246.9999999999999 639.0000000000002 253.9999999999999C644.0000000000002 256.9999999999999 650.0000000000001 258.9999999999999 656.0000000000002 261C657.0000000000002 261 659.0000000000002 261.9999999999999 661.0000000000002 263C665.0000000000002 265 668.0000000000002 267 669.0000000000002 271C688 281 706 256 728 261zM693 199C705 184 706 154 715 133.0000000000001C658 100.0000000000001 593 79 523 75.0000000000001L500 74L488 74C486.9999999999999 91.0000000000001 493 106.0000000000001 527 116.0000000000001C559 112 571 198.0000000000001 599.9999999999999 158.0000000000001C627 210.0000000000001 617 186.0000000000001 655 187.0000000000002C657 156.0000000000002 629 167.0000000000002 676 142.0000000000002C693 159 673 182 693 199zM500 950C252 950 50 748 50 500C50 252 251 50 500 50C748 50 950 251 950 500C950 748 748 950 500 950zM500 1000C776 1000 1000 776 1000 500C1000 224 776 0 500 0C224 0 0 224 0 500C0 776 224 1000 500 1000z" />
    <glyph glyph-name="facebook"
      unicode="&#xEA1F;"
      horiz-adv-x="1000" d="M722 672H574V767C574 823 602 829 621 829H722V1000H573C399 1000 373 866 373 778V672H278V499.0000000000001H373V0H574V499H705L722 672z" />
    <glyph glyph-name="global"
      unicode="&#xEA20;"
      horiz-adv-x="1000" d="M500 1000C638 1000 763 944 853 853C943 763 1000 638 1000 500C1000 362 944 237 853 146C763 55 638 0 500 0C362 0 237 55 147 146C56 237 0 362 0 500C0 638 56 763 147 853C237 944 362 1000 500 1000zM477 77L477 77V239C431 237 387 228.0000000000001 347 212C341 210 335 208 330 205C334 198 337 191 341 184C367 138.0000000000001 397 103.0000000000001 431 82C445 80 461 78 477 77zM799 799L799 799C796.0000000000001 803 792 806 788.0000000000001 809C770.0000000000001 795 750.0000000000001 783 729 772C756.0000000000001 701 773.0000000000001 615 776.0000000000001 523H922C916 630 871 727 799 799zM752 839L752 839C725 859 697 876 666.0000000000001 889C678.0000000000001 873 689 856 700.0000000000001 837C704.0000000000002 830 708.0000000000001 822 712.0000000000002 814C725 822 739 830 752 839zM570 917L570 917C555 919 539 921 523 922V760C569 762 613 772 653 787C658.9999999999999 789 663.9999999999999 791 670 794C667 801 663 808 659 815C634 861 603 896 570 917zM477 922L477 922C461 921 445 920 430 917C396 896 366 861 340 815C336 808 333 801 329 794C335 792 340 789 346 787C386 772 430 762 476 760V922zM334 889L334 889C303 876 275 859 248 839C261 830 275 822 289 813C293 821 297 829 301 836C310 856 322 873 334 889zM211 809L211 809C208 806 204 802 201 799C129 727 83 630 77 523H223C226 615 243 701 270 772C249 783 230 795 211 809zM77 477L77 477C83 370 129 273.0000000000001 200 201L210 191C229 205 248 218 269 228.9999999999999C242 301 225 386 222 477.9999999999999H77zM248 160L248 160C275 140 303 124 334 110C322 125 310 143 300 162C296 169 292 177 288 185C275 178 261 169 248 160zM523 77L523 77C539 78 555 80 570 82C604 102 634 138 660 184C664 191.0000000000001 668 198.0000000000001 671 205C665 207 660 210 653.9999999999999 212C613.9999999999999 228 569.9999999999999 237 523.9999999999999 239V77zM666 110L666 110C696.9999999999999 123 725 139 751.9999999999999 160C738.9999999999999 169 724.9999999999999 178 711.9999999999999 185C707.9999999999998 177 703.9999999999999 169 699.9999999999999 162C689 143 678 126 666 110zM789 190L789 190L800 200C871 272 917 369 923 476H777C774 384 757 299 730 227C751 217 770 204 789 190zM688 752L688 752C681 749 675 747 668.9999999999999 745C622.9999999999999 728 573.9999999999999 717 522.9999999999999 715V523H730C728 608 713 686 688 752zM477 714L477 714C426 716 377 727 331 744C324 746 318 748 311 751C286 685 271 607 269 522H477V714zM477 285L477 285V477H269C271 392 287 314 311 248.0000000000001C318 250.0000000000001 324 253.0000000000001 331 255.0000000000001C377 273 426 283 477 285zM523 285L523 285C574 283 623 272 668.9999999999999 255C676 253 681.9999999999999 250 688 248C713 313.9999999999999 728 392 730 477H523V285z" />
    <glyph glyph-name="hamburger"
      unicode="&#xEA21;"
      horiz-adv-x="1000" d="M53.9999999999999 169H946C976 169 1000 193.0000000000001 1000 223.0000000000001C1000 253.0000000000001 976 277.0000000000003 946 277.0000000000003H53.9999999999999C23.9999999999999 277.0000000000003 -1e-13 253.0000000000001 -1e-13 223.0000000000001C-1e-13 193 23.9999999999999 169 53.9999999999999 169zM53.9999999999999 446H946C976 446 1000 470 1000 500C1000 530 976 554 946 554H53.9999999999999C23.9999999999999 554 -1e-13 530 -1e-13 500C-1e-13 470 23.9999999999999 446 53.9999999999999 446zM53.9999999999999 723H946C976 723 1000 747 1000 777C1000 807 976 831 946 831H53.9999999999999C23.9999999999999 831 -1e-13 807 -1e-13 777C-1e-13 747 23.9999999999999 723 53.9999999999999 723z" />
    <glyph glyph-name="heart-fill"
      unicode="&#xEA22;"
      horiz-adv-x="1000" d="M711 886C623 886 546 842 499.9999999999999 774C453.9999999999999 841 376.9999999999999 886 288.9999999999999 886C148 886 34.9999999999999 772 34.9999999999999 632C34.9999999999999 587 46.9999999999999 544 66.9999999999999 508.0000000000001C111 430 500 114 500 114S887 428 931 504.0000000000001C953 541.0000000000001 965 585 965 631.0000000000001C965 772 851 886 711 886z" />
    <glyph glyph-name="heart-stroke"
      unicode="&#xEA23;"
      horiz-adv-x="1000" d="M703 881C839 881 949 771 949 635C949 590 937 548 916 512C873 438 499 134 499 134S123 439 80 514C60 550 49 591 49 635C49 771 159 881 295 881C380 881 454 838 499 773C543 838 618 881 703 881M703 931C626 931 554.0000000000001 901 499.0000000000001 850C445.0000000000001 902 372.0000000000001 931 295.0000000000001 931C132 931 -1 798 -1 635C-1 584 12 534 37 490C81 410 403 147 468 95L500 69L532 95C596 147 916 409 961 487C987 532 1001 583 1001 635C999 798 866 931 703 931L703 931z" />
    <glyph glyph-name="heart"
      unicode="&#xEA24;"
      horiz-adv-x="1000" d="M500 41L428 106.9999999999999C170 341 0 495 0 684C0 838 121 959 275 959C362 959 445 919 500 855C554 918 638 959 725 959C879 959 1000 838 1000 684C1000 495 830 341 572 106.9999999999999L500 41z" />
    <glyph glyph-name="home"
      unicode="&#xEA25;"
      horiz-adv-x="1000" d="M561.9999999999999 954C545.9999999999999 970 523.9999999999999 980 499.9999999999999 980C475.9999999999999 980 453.9999999999999 970 437.9999999999999 954L45.9999999999999 562L45.9999999999999 562C10.9999999999999 527 10.9999999999999 472 45.9999999999999 437C60.9999999999999 422 81.9999999999999 412 104.9999999999999 411C105.9999999999999 411 106.9999999999999 411 107.9999999999999 411H122.9999999999999V123C122.9999999999999 66 168.9999999999999 18.9999999999999 226.9999999999999 18.9999999999999H379.9999999999999C394.9999999999999 18.9999999999999 407.9999999999999 31 407.9999999999999 46.9999999999999V274C407.9999999999999 300 428.9999999999999 321.0000000000001 454.9999999999999 321.0000000000001H544.9999999999999C570.9999999999999 321.0000000000001 591.9999999999999 300.0000000000001 591.9999999999999 274V48.0000000000001C591.9999999999999 33.0000000000001 603.9999999999999 20.0000000000001 619.9999999999999 20.0000000000001H773.9999999999999C831 20.0000000000001 878 66.0000000000001 878 124.0000000000002V413H892.0000000000001C916.0000000000002 413 938 423 954.0000000000002 439C989.0000000000002 474 989.0000000000002 529 954.0000000000002 564L561.9999999999999 954z" />
    <glyph glyph-name="info-center"
      unicode="&#xEA26;"
      horiz-adv-x="1000" d="M527 749C518 747 506.9999999999999 739 500.9999999999999 735C494.9999999999999 723 508 719 511.9999999999999 711C517 698 535 698 538 684V683C538 679 543 654 581 639C582 638 584 638 585 637C597 632 609 626 621 625C636 627 643 637 654 647C665 653 680 661 680 677C669 689 667 704 661 718C650 722 643 734 633 738L603 754C594 754 583 752 575 758C557 774 546 749 527 749zM560 847C749 847 875 692 842 500C817 357 711.0000000000001 235 581 181C580 181 579 180 577 178.9999999999999S573 178 572 176.9999999999999C568 176 564 174.9999999999999 560 173.9999999999999C551 173 543 173.9999999999999 538 174.9999999999999C535 175.9999999999998 532 176.9999999999999 530 177.9999999999998H529L523 179.9999999999999C476.9999999999999 199.9999999999999 479.9999999999999 247.9999999999998 479.9999999999999 251.9999999999999C479.9999999999999 253.9999999999999 480.9999999999999 256 480.9999999999999 257.9999999999998C478.9999999999999 261.9999999999999 483.9999999999999 265.9999999999998 480.9999999999999 268.9999999999998C481.9999999999999 270.9999999999998 483.9999999999999 272.9999999999998 483.9999999999999 276.9999999999998C483.9999999999999 278.9999999999998 485.9999999999999 279.9999999999998 485.9999999999999 280.9999999999998C484.9999999999999 283.9999999999998 489.9999999999999 285.9999999999998 488.9999999999999 287.9999999999998C490.9999999999999 291.9999999999999 490.9999999999999 295.9999999999998 493.9999999999999 297.9999999999998C493.9999999999999 299.9999999999999 495.9999999999999 300.9999999999998 495.9999999999999 302.9999999999998C498.9999999999999 304.9999999999999 498.9999999999999 306.9999999999999 498.9999999999999 309.9999999999999C499.9999999999999 310.9999999999998 501.9999999999999 311.9999999999999 500.9999999999999 313.9999999999999C500.9999999999999 314.9999999999999 501.9999999999999 316 503 316V318C500.9999999999999 317 495 318.9999999999999 495.9999999999999 313.9999999999999C493.9999999999999 313.9999999999999 494.9999999999999 311 493 311C493 306.9999999999999 489 306.9999999999999 490 303C487.0000000000001 301 490 297 486.0000000000001 295C485 291 482.0000000000001 289 480 287C479 286.0000000000001 480 285 479 285C478 287 479 290 481.0000000000001 292C481.0000000000001 299 486.0000000000001 303 488.0000000000001 309C488.0000000000001 312 491.0000000000001 316.0000000000001 492.0000000000001 318.0000000000001C495 320.0000000000001 495 324 496.0000000000001 328.0000000000001C497.0000000000001 333.0000000000001 500 335.0000000000001 500 340.0000000000001C502.0000000000001 342.0000000000003 502.0000000000001 347.0000000000003 504 348.0000000000001C506.0000000000001 354 510 358.0000000000001 511.9999999999999 363.0000000000001C514 364.0000000000001 513 367.0000000000001 515 369.0000000000001C516 372.0000000000001 515 375.0000000000001 518 377.0000000000001C522 378.0000000000001 522 383.0000000000001 525 385.0000000000001C529 389 532 395.0000000000001 538 395.0000000000001C541 394 541 396.0000000000001 543 397.0000000000001C544 397.0000000000001 545 398.0000000000001 544 399.0000000000001C549 400.0000000000001 549 404.0000000000001 551 408.0000000000001C554 410.0000000000001 554 414.0000000000001 556 416.0000000000001C555 419 558 419 557 422.0000000000001C554 423.0000000000001 555 419.0000000000001 554 418.0000000000001S550.0000000000001 416.0000000000001 550.0000000000001 414.0000000000001C549 413.0000000000001 549 411.0000000000001 547.0000000000001 411.0000000000001C546.0000000000001 409.0000000000001 544.0000000000001 408.0000000000003 545.0000000000001 406.0000000000001C544 407.0000000000003 543 407.0000000000003 542.0000000000001 406.0000000000001C540.0000000000001 409.0000000000001 543.0000000000001 411.0000000000001 543.0000000000001 415.0000000000001C544.0000000000001 417.0000000000003 546.0000000000001 417.0000000000003 545.0000000000001 419.0000000000001C543.0000000000001 419.0000000000001 543.0000000000001 417.0000000000001 541.0000000000001 416.0000000000001C540.0000000000001 416.0000000000001 539.0000000000001 415.0000000000001 539.0000000000001 416.0000000000001C539.0000000000001 418.0000000000003 539.0000000000001 421.0000000000001 542.0000000000001 421.0000000000001C543.0000000000001 423.0000000000003 545.0000000000001 424.0000000000001 544.0000000000001 426.0000000000001C547.0000000000001 427.0000000000003 546.0000000000001 430.0000000000001 550.0000000000001 430.0000000000001C550.0000000000001 431.0000000000001 550.0000000000001 432.0000000000003 549.0000000000001 432.0000000000003C549.0000000000001 432.0000000000003 549.0000000000001 433.0000000000003 550.0000000000001 433.0000000000003V436.0000000000001C552.0000000000002 439.0000000000001 555.0000000000001 440.0000000000001 558.0000000000001 441.0000000000001C557.0000000000001 442.0000000000003 559.0000000000001 444.0000000000001 559.0000000000001 444.0000000000001C559.0000000000001 448.0000000000001 564.0000000000001 448.0000000000001 564.0000000000001 452.0000000000001C567.0000000000001 452.0000000000001 568.0000000000001 454.0000000000001 570.0000000000001 455.0000000000001C570.0000000000001 457.0000000000001 573.0000000000001 459 574.0000000000001 460.0000000000001C574.0000000000001 461.0000000000001 574.0000000000001 461.0000000000001 574.0000000000001 462.0000000000001C577.0000000000001 463.0000000000001 578.0000000000001 468.0000000000001 580.0000000000001 470.0000000000001C581.0000000000001 471.0000000000001 583.0000000000001 472.0000000000001 582.0000000000002 474C582.0000000000002 475.0000000000001 583.0000000000002 476.0000000000001 584.0000000000002 476.0000000000001V477.0000000000001C583.0000000000002 478.0000000000001 585.0000000000002 478.0000000000001 586.0000000000002 479.0000000000001C587.0000000000002 483.0000000000001 593.0000000000002 484.0000000000001 592.0000000000002 490.0000000000001C591.0000000000002 490.0000000000001 590.0000000000002 488.0000000000001 589.0000000000002 490.0000000000001C590.0000000000002 492.0000000000002 591.0000000000003 493.0000000000001 592.0000000000002 495.0000000000001C592.0000000000002 494.0000000000001 593.0000000000002 493.0000000000001 593.0000000000002 493.0000000000001C594.0000000000002 493.0000000000001 596.0000000000002 493.0000000000001 596.0000000000002 494.0000000000001C597.0000000000002 495.0000000000001 598.0000000000002 496.0000000000002 600.0000000000002 497.0000000000001C600.0000000000002 498.0000000000001 600.0000000000002 498.0000000000001 599.0000000000002 499.0000000000001L600.0000000000002 500.0000000000001C603.0000000000002 499.0000000000001 602.0000000000002 502.0000000000002 605.0000000000002 503.0000000000001C605.0000000000002 504.0000000000001 605.0000000000002 504.0000000000001 604.0000000000002 505.0000000000001C604.0000000000002 506.0000000000002 605.0000000000002 506.0000000000002 606.0000000000002 507.0000000000002C607.0000000000002 507.0000000000002 608.0000000000002 509.0000000000002 610.0000000000002 509.0000000000002C610.0000000000002 511.0000000000002 612.0000000000002 511.0000000000002 612.0000000000002 513.0000000000002C615.0000000000002 516.0000000000002 616.0000000000002 520.0000000000002 617.0000000000002 524.0000000000002C619.0000000000002 525.0000000000002 618.0000000000002 528.0000000000002 621.0000000000002 529.0000000000002C620.0000000000002 531.0000000000002 623.0000000000002 530.0000000000002 622.0000000000002 532.0000000000002C623.0000000000002 533.0000000000002 623.0000000000002 533.0000000000002 624.0000000000002 534.0000000000002C624.0000000000002 536.0000000000002 625.0000000000002 537.0000000000002 625.0000000000002 538.0000000000002C626.0000000000003 539.0000000000002 627.0000000000003 540.0000000000002 628.0000000000002 541.0000000000002C628.0000000000002 544.0000000000001 630.0000000000002 545.0000000000001 631.0000000000002 547.0000000000002C634.0000000000002 551.0000000000002 635.0000000000002 555.0000000000001 637.0000000000002 559.0000000000002C640.0000000000002 561.0000000000002 639.0000000000002 565.0000000000002 639.0000000000002 568.0000000000002C638.0000000000002 572.0000000000002 638.0000000000002 577.0000000000002 638.0000000000002 581.0000000000002C638.0000000000002 594.0000000000001 611.0000000000002 586.0000000000002 611.0000000000002 586.0000000000002C610.0000000000002 583.0000000000002 606.0000000000002 585.0000000000001 604.0000000000002 583.0000000000002C602.0000000000002 582.0000000000002 601.0000000000002 582.0000000000002 599.0000000000002 581.0000000000002C598.0000000000002 579.0000000000001 594.0000000000002 579.0000000000001 592.0000000000002 578.0000000000002C591.0000000000001 578.0000000000002 590.0000000000001 576.0000000000002 588.0000000000002 576.0000000000002C586.0000000000001 575.0000000000001 584.0000000000002 575.0000000000001 582.0000000000002 574.0000000000001C581.0000000000001 572.0000000000001 578.0000000000002 574.0000000000001 578.0000000000002 571.0000000000002C577.0000000000002 571.0000000000002 576.0000000000001 571.0000000000002 574.0000000000002 570.0000000000001C573.0000000000002 568.0000000000001 570.0000000000002 568.0000000000001 569.0000000000002 568.0000000000001C567.0000000000002 567.0000000000001 567.0000000000002 565.0000000000001 565.0000000000002 565.0000000000001C565.0000000000002 563.0000000000001 562.0000000000002 565.0000000000001 561.0000000000002 564.0000000000001C559.0000000000002 562.0000000000001 555.0000000000002 563.0000000000001 552.0000000000002 563.0000000000001L551.0000000000002 562.0000000000001C548.0000000000002 563.0000000000001 549.0000000000002 561.0000000000001 547.0000000000002 560C544.0000000000002 560 542.0000000000002 558 539.0000000000002 558C538.0000000000002 557 536.0000000000003 556 534.0000000000002 555C531.0000000000003 555 530.0000000000002 553 528.0000000000002 553C527.0000000000002 552 525.0000000000002 553 524.0000000000002 553H523.0000000000002C520.0000000000002 551 516.0000000000002 553 514.0000000000002 551C520.0000000000002 550 515.0000000000002 553 515.0000000000002 550C514.0000000000002 550 513.0000000000002 549 511.0000000000002 549C510.0000000000002 549 510.0000000000002 547 510.0000000000002 546C507.0000000000003 546 503.0000000000002 545 500.0000000000002 543C499.0000000000002 541 497.0000000000003 543 496.0000000000002 541C494.0000000000002 540 491.0000000000002 540 489.0000000000002 540C489.0000000000002 539 488.0000000000002 539 488.0000000000002 539C485.0000000000002 540 485.0000000000002 537 483.0000000000002 537C483.0000000000002 537 483.0000000000002 537 483.0000000000002 538C480.0000000000002 538 479.0000000000002 536 477.0000000000002 535C475.0000000000002 535 474.0000000000002 534 473.0000000000002 534C468.0000000000002 535 467.0000000000002 530 463.0000000000002 531C462.0000000000002 529 458.0000000000002 530 457.0000000000002 528C454.0000000000002 529 451.0000000000002 527 449.0000000000003 526C446.0000000000003 526 445.0000000000003 524 442.0000000000002 524V523C439.0000000000003 523 439.0000000000003 521 436.0000000000002 521C434.0000000000002 518.9999999999999 429.0000000000002 520 427.0000000000002 517C426.0000000000002 515 424.0000000000003 517 423.0000000000002 515C421.0000000000002 516 420.0000000000003 513.9999999999999 419.0000000000003 512.9999999999999C417.0000000000002 509.9999999999999 412.0000000000002 511.9999999999999 409.0000000000003 509.9999999999999C407.0000000000002 510.9999999999999 407.0000000000002 507.9999999999999 404.0000000000003 508.9999999999999C402.0000000000002 508.9999999999999 402.0000000000002 507.9999999999999 401.0000000000003 505.9999999999999C399.0000000000003 504.9999999999999 398.0000000000003 504.9999999999999 396.0000000000003 504.9999999999999C394.0000000000003 502.9999999999999 391.0000000000003 504.9999999999999 388.0000000000003 503.9999999999999C387.0000000000003 501.9999999999999 385.0000000000003 501.9999999999999 384.0000000000003 498.9999999999999C383.0000000000003 497.9999999999999 381.0000000000003 498.9999999999999 381.0000000000003 499.9999999999999C380.0000000000003 499.9999999999999 379.0000000000003 499.9999999999999 378.0000000000004 498.9999999999999C376.0000000000003 499.9999999999999 375.0000000000004 496.9999999999999 374.0000000000004 496.9999999999999V495.9999999999999C373.0000000000004 495.9999999999999 373.0000000000004 493.9999999999998 372.0000000000004 495.9999999999999C369.0000000000004 495.9999999999999 368.0000000000004 493.9999999999998 367.0000000000004 491.9999999999999C366.0000000000003 491.9999999999999 363.0000000000004 493.9999999999999 362.0000000000004 491.9999999999999C362.0000000000004 489.9999999999999 359.0000000000004 490.9999999999999 358.0000000000004 489.9999999999999C358.0000000000004 488.9999999999998 358.0000000000004 487.9999999999998 357.0000000000004 487.9999999999998C354.0000000000004 488.9999999999998 352.0000000000004 486.9999999999998 350.0000000000003 486.9999999999998C348.0000000000003 487.9999999999998 347.0000000000004 487.9999999999998 345.0000000000003 487.9999999999998V485.9999999999998C343.0000000000003 484.9999999999998 344.0000000000003 482.9999999999998 341.0000000000003 483.9999999999998C340.0000000000003 480.9999999999998 340.0000000000003 484.9999999999998 338.0000000000004 484.9999999999998C336.0000000000003 483.9999999999998 332.0000000000004 484.9999999999998 331.0000000000003 481.9999999999998C329.0000000000003 481.9999999999998 328.0000000000004 480.9999999999998 327.0000000000004 478.9999999999999C326.0000000000003 473.9999999999999 320.0000000000003 477.9999999999998 318.0000000000004 474.9999999999999C314.0000000000004 478.9999999999999 312.0000000000004 472.9999999999998 310.0000000000004 472.9999999999998C309.0000000000004 470.9999999999998 306.0000000000004 473.9999999999999 305.0000000000004 470.9999999999998C302.0000000000004 470.9999999999998 299.0000000000004 468.9999999999998 296.0000000000004 468.9999999999998C295.0000000000004 467.9999999999998 292.0000000000004 467.9999999999998 291.0000000000004 465.9999999999998C289.0000000000004 465.9999999999998 288.0000000000004 464.9999999999998 286.0000000000004 464.9999999999998C283.0000000000004 463.9999999999998 280.0000000000004 461.9999999999998 277.0000000000004 460.9999999999998C274.0000000000004 460.9999999999998 274.0000000000004 457.9999999999998 270.0000000000004 458.9999999999998C268.0000000000004 457.9999999999998 266.0000000000004 455.9999999999998 263.0000000000004 455.9999999999998C264.0000000000004 452.9999999999998 260.0000000000004 454.9999999999998 260.0000000000004 453.9999999999998C259.0000000000004 452.9999999999998 257.0000000000004 452.9999999999998 257.0000000000004 451.9999999999998C254.0000000000004 451.9999999999998 252.0000000000004 450.9999999999998 250.0000000000004 449.9999999999998C249.0000000000004 447.9999999999997 247.0000000000004 448.9999999999997 246.0000000000005 447.9999999999997S243.0000000000004 447.9999999999997 243.0000000000004 445.9999999999997C241.0000000000005 446.9999999999997 240.0000000000004 444.9999999999997 238.0000000000004 444.9999999999997C236.0000000000005 442.9999999999997 232.0000000000004 442.9999999999997 230.0000000000004 440.9999999999997C228.0000000000004 440.9999999999997 227.0000000000004 439.9999999999997 225.0000000000004 439.9999999999997C224.0000000000004 437.9999999999997 220.0000000000004 437.9999999999997 218.0000000000004 436.9999999999997C218.0000000000004 436.9999999999997 217.0000000000004 435.9999999999997 216.0000000000004 435.9999999999997L213.0000000000004 434.9999999999997V432.9999999999997C214.0000000000004 432.9999999999997 216.0000000000004 432.9999999999997 216.0000000000004 433.9999999999997C219.0000000000004 433.9999999999997 222.0000000000004 434.9999999999997 225.0000000000004 434.9999999999997V435.9999999999997L228.0000000000004 436.9999999999997C231.0000000000005 434.9999999999997 233.0000000000004 438.9999999999997 236.0000000000005 437.9999999999997V436.9999999999997C236.0000000000005 435.9999999999997 235.0000000000004 436.9999999999997 234.0000000000005 435.9999999999997C233.0000000000004 433.9999999999997 235.0000000000005 433.9999999999997 236.0000000000005 431.9999999999997H237.0000000000005C238.0000000000005 431.9999999999997 237.0000000000005 430.9999999999997 237.0000000000005 430.9999999999997C241.0000000000005 430.9999999999997 246.0000000000005 431.9999999999997 250.0000000000005 432.9999999999997C252.0000000000005 430.9999999999997 255.0000000000005 432.9999999999997 258.0000000000004 431.9999999999997C260.0000000000004 431.9999999999997 261.0000000000004 433.9999999999997 263.0000000000004 432.9999999999997C264.0000000000004 431.9999999999997 266.0000000000004 431.9999999999997 265.0000000000004 430.9999999999997C265.0000000000004 430.9999999999997 265.0000000000004 429.9999999999997 264.0000000000004 429.9999999999997V427.9999999999997C265.0000000000004 427.9999999999997 267.0000000000004 426.9999999999996 267.0000000000004 428.9999999999997C268.0000000000004 427.9999999999997 269.0000000000004 428.9999999999997 270.0000000000004 427.9999999999997V429.9999999999997H269.0000000000004S269.0000000000004 429.9999999999997 269.0000000000004 430.9999999999997C270.0000000000004 430.9999999999997 271.0000000000004 430.9999999999997 271.0000000000004 431.9999999999997C271.0000000000004 431.9999999999997 270.0000000000004 431.9999999999997 269.0000000000004 431.9999999999997C269.0000000000004 432.9999999999997 269.0000000000004 432.9999999999997 270.0000000000004 433.9999999999997H271.0000000000004C273.0000000000004 433.9999999999997 275.0000000000004 432.9999999999997 274.0000000000004 430.9999999999998H272.0000000000005V429.9999999999998H273.0000000000005C274.0000000000005 429.9999999999998 274.0000000000005 430.9999999999998 274.0000000000005 430.9999999999998C276.0000000000005 430.9999999999998 278.0000000000005 431.9999999999998 279.0000000000005 429.9999999999998H286.0000000000005L287.0000000000005 431.9999999999998C288.0000000000005 431.9999999999998 287.0000000000005 430.9999999999998 288.0000000000005 430.9999999999998H292.0000000000005C293.0000000000005 429.9999999999998 294.0000000000005 430.9999999999998 295.0000000000005 429.9999999999998H298.0000000000005C297.0000000000005 432.9999999999997 302.0000000000005 431.9999999999998 301.0000000000005 433.9999999999997H300.0000000000005S300.0000000000005 433.9999999999997 300.0000000000005 434.9999999999998C301.0000000000005 433.9999999999997 304.0000000000005 434.9999999999998 305.0000000000005 433.9999999999997C305.0000000000005 432.9999999999997 306.0000000000005 432.9999999999997 306.0000000000005 432.9999999999997C307.0000000000005 434.9999999999998 310.0000000000005 431.9999999999997 312.0000000000005 434.9999999999998C313.0000000000005 434.9999999999998 315.0000000000005 435.9999999999998 316.0000000000005 434.9999999999998C317.0000000000005 434.9999999999998 320.0000000000005 434.9999999999998 319.0000000000005 436.9999999999998H322.0000000000005V438.9999999999998C322.0000000000005 439.9999999999998 325.0000000000005 437.9999999999998 325.0000000000005 438.9999999999998V437.9999999999998C327.0000000000005 436.9999999999998 326.0000000000005 438.9999999999998 328.0000000000004 439.9999999999998C330.0000000000005 439.9999999999998 331.0000000000004 437.9999999999998 333.0000000000004 437.9999999999998V436.9999999999998C331.0000000000004 436.9999999999998 331.0000000000004 434.9999999999998 330.0000000000005 433.9999999999998C330.0000000000005 434.9999999999998 329.0000000000004 434.9999999999998 328.0000000000004 434.9999999999998C326.0000000000004 435.9999999999998 327.0000000000004 433.9999999999998 326.0000000000004 432.9999999999998C321.0000000000004 431.9999999999998 318.0000000000004 428.9999999999998 313.0000000000004 429.9999999999998C312.0000000000004 428.9999999999998 312.0000000000004 427.9999999999998 312.0000000000004 426.9999999999998C311.0000000000004 426.9999999999998 310.0000000000004 427.9999999999998 310.0000000000004 425.9999999999998C310.0000000000004 426.9999999999998 309.0000000000004 426.9999999999998 308.0000000000004 426.9999999999998C309.0000000000004 424.9999999999998 305.0000000000004 423.9999999999999 307.0000000000004 421.9999999999998H309.0000000000004C310.0000000000004 422.9999999999998 312.0000000000004 422.9999999999998 312.0000000000004 423.9999999999999S312.0000000000004 425.9999999999999 314.0000000000004 425.9999999999999C315.0000000000004 427.9999999999999 318.0000000000004 427.9999999999999 320.0000000000004 428.9999999999999C322.0000000000004 427.9999999999998 324.0000000000004 427.9999999999998 325.0000000000004 426.9999999999998C324.0000000000004 425.9999999999998 324.0000000000004 424.9999999999998 323.0000000000004 425.9999999999998V422.9999999999998C325.0000000000004 423.9999999999999 325.0000000000004 420.9999999999998 327.0000000000004 421.9999999999998C329.0000000000004 423.9999999999999 331.0000000000003 420.9999999999998 333.0000000000004 421.9999999999998V422.9999999999998S333.0000000000004 423.9999999999999 334.0000000000004 422.9999999999998V421.9999999999998H335.0000000000004C336.0000000000004 421.9999999999998 336.0000000000004 422.9999999999998 336.0000000000004 422.9999999999998H340.0000000000004C342.0000000000004 422.9999999999998 343.0000000000004 424.9999999999999 346.0000000000004 423.9999999999999C346.0000000000004 424.9999999999999 349.0000000000004 423.9999999999999 348.0000000000004 425.9999999999999C350.0000000000005 425.9999999999999 352.0000000000004 428.9999999999999 355.0000000000005 427.9999999999999C357.0000000000005 427.9999999999999 360.0000000000005 427.9999999999999 360.0000000000005 428.9999999999999H361.0000000000005C362.0000000000005 428.9999999999999 364.0000000000004 427.9999999999999 364.0000000000004 428.9999999999999V427.9999999999999H366.0000000000005V428.9999999999999C367.0000000000005 429.9999999999999 368.0000000000005 431 369.0000000000004 431C370.0000000000005 432 372.0000000000004 429.9999999999999 372.0000000000004 432C374.0000000000004 431 376.0000000000004 433 377.0000000000004 433S378.0000000000004 434 378.0000000000004 435V434C380.0000000000005 434 381.0000000000004 435 382.0000000000004 435C382.0000000000004 437 385.0000000000004 435 385.0000000000004 437C386.0000000000004 436 387.0000000000004 437 388.0000000000004 436H389.0000000000004C390.0000000000004 436 389.0000000000004 436 390.0000000000004 437C393.0000000000004 436 398.0000000000004 437 402.0000000000004 437C403.0000000000004 438 402.0000000000004 439 404.0000000000004 440V439C407.0000000000004 438 409.0000000000004 439 411.0000000000005 439V441C413.0000000000005 444 417.0000000000005 442 419.0000000000004 443C420.0000000000005 445.0000000000001 424.0000000000004 442 423.0000000000004 445.0000000000001C426.0000000000004 446.0000000000001 428.0000000000004 448 432.0000000000004 447.0000000000001H433.0000000000004C435.0000000000005 447.0000000000001 434.0000000000004 449.0000000000001 435.0000000000005 450.0000000000001C437.0000000000005 449 438.0000000000004 452.0000000000001 440.0000000000005 451.0000000000001C441.0000000000005 452.0000000000001 444.0000000000004 452.0000000000001 445.0000000000005 453.0000000000001S447.0000000000005 454.0000000000001 448.0000000000004 455.0000000000001H452.0000000000004C452.0000000000004 453.0000000000001 448.0000000000004 452.0000000000002 448.0000000000004 450.0000000000001C447.0000000000004 449.0000000000001 447.0000000000004 447.0000000000003 445.0000000000005 448.0000000000001C444.0000000000004 448.0000000000001 442.0000000000005 447.0000000000001 441.0000000000005 447.0000000000001L440.0000000000005 443.0000000000001H441.0000000000005C441.0000000000005 442.0000000000001 440.0000000000005 441.0000000000001 439.0000000000004 440.0000000000001C438.0000000000004 437.0000000000003 437.0000000000004 435.0000000000001 436.0000000000005 431.0000000000001C432.0000000000005 431.0000000000001 437.0000000000005 426.0000000000001 433.0000000000005 426.0000000000001C431.0000000000005 420.0000000000001 427.0000000000005 418.0000000000003 425.0000000000005 412.0000000000003C422.0000000000005 407.0000000000003 420.0000000000005 403.0000000000003 418.0000000000005 398.0000000000003C416.0000000000005 397.0000000000003 415.0000000000005 395.0000000000003 415.0000000000005 392.0000000000003C412.0000000000005 390.0000000000001 413.0000000000005 385.0000000000001 410.0000000000005 383.0000000000003C409.0000000000005 381.0000000000001 408.0000000000005 380.0000000000003 408.0000000000005 378.0000000000003C404.0000000000005 373.0000000000003 402.0000000000005 366.0000000000001 399.0000000000005 360.0000000000003C399.0000000000005 358.0000000000003 397.0000000000005 356.0000000000003 397.0000000000005 354.0000000000003C395.0000000000005 354.0000000000003 397.0000000000005 350.0000000000001 394.0000000000005 350.0000000000001C393.0000000000005 348.0000000000001 394.0000000000005 345.0000000000001 392.0000000000005 343.0000000000001C392.0000000000005 339 388.0000000000005 337.0000000000003 389.0000000000005 334C388.0000000000005 332 387.0000000000005 328.0000000000001 385.0000000000005 326.0000000000001V324C387.0000000000005 321.0000000000001 384.0000000000005 320 385.0000000000005 317S383.0000000000005 313 383.0000000000005 309C383.0000000000005 308.0000000000001 383.0000000000005 306.0000000000001 384.0000000000005 306.0000000000001C382.0000000000005 304 384.0000000000005 301.0000000000001 384.0000000000005 299C382.0000000000005 298.0000000000001 382.0000000000005 295 380.0000000000005 295C381.0000000000005 293 376.0000000000005 293 379.0000000000005 289H381.0000000000005C382.0000000000005 286.0000000000001 379.0000000000005 289 378.0000000000006 288.0000000000001V277.0000000000003C377.0000000000005 275.0000000000001 376.0000000000005 273.0000000000001 375.0000000000006 271.0000000000003C375.0000000000006 268.0000000000003 374.0000000000006 263.0000000000003 373.0000000000006 259.0000000000003C373.0000000000006 254.0000000000003 372.0000000000005 247.0000000000003 373.0000000000006 242.0000000000003C373.0000000000006 236.0000000000003 375.0000000000006 228.0000000000001 377.0000000000005 221.0000000000002C381.0000000000005 210.0000000000002 385.0000000000005 200.0000000000002 392.0000000000005 192.0000000000002C394.0000000000006 189.0000000000002 396.0000000000005 185.0000000000001 399.0000000000006 184.0000000000002C400.0000000000006 182.0000000000002 402.0000000000005 180.0000000000001 404.0000000000006 179.0000000000002C405.0000000000006 177.0000000000002 409.0000000000006 178.0000000000002 408.0000000000006 176.0000000000002C412.0000000000005 174.0000000000002 411.0000000000005 171.0000000000002 417.0000000000005 173.0000000000002C420.0000000000005 173.0000000000002 417.0000000000005 169.0000000000002 420.0000000000005 169.0000000000002C423.0000000000005 171.0000000000002 422.0000000000005 166.0000000000002 424.0000000000005 168.0000000000002C425.0000000000005 167.0000000000004 429.0000000000005 167.0000000000004 430.0000000000005 166.0000000000002L438.0000000000005 163.0000000000002C440.0000000000005 162.0000000000004 458.0000000000005 158.0000000000002 488.0000000000005 157.0000000000004C486.0000000000005 157.0000000000004 485.0000000000005 156.0000000000004 483.0000000000005 156.0000000000004C468.0000000000005 154.0000000000004 454.0000000000005 153.0000000000005 439.0000000000005 153.0000000000005C250.0000000000006 153.0000000000005 124.0000000000005 308.0000000000005 157.0000000000006 500.0000000000005C173.0000000000006 591.0000000000005 222.0000000000006 674.0000000000005 289.0000000000005 736.0000000000005C364.0000000000005 804.0000000000005 461.0000000000005 847.0000000000005 560.0000000000006 847.0000000000005zM1000 111.0000000000001V889C1000 950 950 1000 889 1000H111.0000000000001C50.0000000000001 1000 1e-13 950 1e-13 889V111.0000000000001C1e-13 50.0000000000001 50.0000000000001 1e-13 111.0000000000001 1e-13H889C950 1e-13 1000 50.0000000000001 1000 111.0000000000001z" />
    <glyph glyph-name="info"
      unicode="&#xEA27;"
      horiz-adv-x="1000" d="M400 600H600V0H400V600zM400 1000H600V800H400V1000z" />
    <glyph glyph-name="landing"
      unicode="&#xEA28;"
      horiz-adv-x="1000" d="M77.8464511547958 900L81.8464511547958 900L116.8464511547958 894C124.8464511547958 893 130.8464511547958 888 134.8464511547958 881L225.8464511547958 691L758.8464511547958 603C856.8464511547958 587 871.8464511547958 578 891.8464511547958 561C897.8464511547958 556 902.8464511547958 552 914.8464511547958 546C948.8464511547958 528.9999999999999 972.8464511547958 511.9999999999999 985.8464511547958 493.9999999999999C998.8464511547955 476.9999999999999 999.8464511547958 461.9999999999999 998.8464511547955 452.9999999999999C996.8464511547955 440.9999999999999 982.8464511547958 403.9999999999999 878.8464511547957 419.9999999999999L607.8464511547957 463.9999999999999L326.8464511547957 416.9999999999999C324.8464511547957 416.9999999999999 322.8464511547957 416.9999999999999 320.8464511547957 416.9999999999999L246.8464511547957 428.9999999999999C237.8464511547957 429.9999999999999 231.8464511547957 437.9999999999999 230.8464511547957 446C229.8464511547957 454.9999999999999 234.8464511547957 463 242.8464511547957 466L355.8464511547957 510.9999999999999L16.8464511547958 626C4.8464511547958 630 -2.1535488452042 643 0.8464511547958 655C3.8464511547958 667 15.8464511547958 675 27.8464511547958 673L27.8464511547958 673L59.8464511547958 668L53.8464511547958 875C53.8464511547958 882 56.8464511547958 889 61.8464511547958 894C66.8464511547958 899 74.8464511547958 901 81.8464511547958 900L77.8464511547958 900zM954.8464511547958 205C979.8464511547958 205 999.8464511547958 181 999.8464511547958 152C999.8464511547958 123 979.8464511547958 99 954.8464511547958 99H413.8464511547959C388.8464511547959 99 368.8464511547959 123.0000000000001 368.8464511547959 152C368.8464511547959 181.0000000000001 388.8464511547959 205 413.8464511547959 205H954.8464511547958z" />
    <glyph glyph-name="link-out"
      unicode="&#xEA29;"
      horiz-adv-x="1000" d="M712 147H147V712H338V859H0V0H859V338H712V147zM478 1000V850H744L328 434L434 328L850 744V480H1000V1000H478z" />
    <glyph glyph-name="link"
      unicode="&#xEA2A;"
      horiz-adv-x="1000" d="M999.5070511188708 287C996.5070511188708 317 981.5070511188708 346.0000000000001 956.5070511188708 371L767.5070511188708 559C749.5070511188708 577 722.5070511188708 586 692.5070511188708 584C663.5070511188705 582 637.5070511188708 570 617.5070511188708 551L570.5070511188708 505L504.5070511188707 571L553.5070511188705 620C595.5070511188708 662 595.5070511188708 730 553.5070511188705 772L357.5070511188707 969C315.5070511188707 1011 247.5070511188707 1011 205.5070511188707 969L31.5070511188707 795C-10.4929488811293 753 -10.4929488811293 685 31.5070511188707 643L229.5070511188707 445C250.5070511188707 424 278.5070511188707 414 305.5070511188707 414S360.5070511188707 424 381.5070511188707 445L430.5070511188707 494L496.5070511188707 428L450.5070511188707 382C429.5070511188707 361 417.5070511188708 331.9999999999999 418.5070511188707 301C419.5070511188707 271 431.5070511188707 243 452.5070511188707 221.9999999999999L640.5070511188708 33.9999999999999C661.5070511188705 13 689.5070511188708 1 719.5070511188708 -1e-13C720.5070511188708 -1e-13 721.5070511188708 -1e-13 722.5070511188708 -1e-13C752.5070511188708 -1e-13 779.5070511188708 10.9999999999998 800.5070511188708 31.9999999999999L969.5070511188708 200C991.5070511188708 223 1002.5070511188708 254 999.5070511188708 287zM267.5070511188707 483L305.5070511188707 521H305.5070511188707L267.5070511188707 483zM305.5070511188707 521L107.5070511188707 719L281.5070511188707 893L479.5070511188707 695L430.5070511188707 646L331.5070511188707 745C310.5070511188707 766 276.5070511188707 766 255.5070511188707 745C234.5070511188707 724 234.5070511188707 690 255.5070511188707 669L354.5070511188707 570L305.5070511188707 521zM724.5070511188708 108C724.5070511188708 108 723.5070511188708 108 722.5070511188708 108C721.5070511188708 108 719.5070511188708 108 716.5070511188708 111H716.5070511188708L528.5070511188708 298C526.5070511188708 300 525.5070511188708 303 525.5070511188708 303.9999999999999C525.5070511188708 304.9999999999999 525.5070511188708 306 525.5070511188708 306L571.5070511188708 351.9999999999999L670.5070511188708 252.9999999999998C680.5070511188708 242.9999999999998 694.5070511188708 236.9999999999999 708.5070511188708 236.9999999999999C722.5070511188708 236.9999999999999 736.5070511188708 241.9999999999999 746.5070511188708 252.9999999999998C767.5070511188708 273.9999999999998 767.5070511188708 307.9999999999998 746.5070511188708 328.9999999999998L647.5070511188708 427.9999999999998L694.5070511188708 474.9999999999998C695.5070511188708 475.9999999999998 696.5070511188708 475.9999999999998 698.5070511188708 476.9999999999998L879.5070511188708 295C888.5070511188708 286 891.5070511188708 279 891.5070511188708 276L724.5070511188708 108z" />
    <glyph glyph-name="list"
      unicode="&#xEA2B;"
      horiz-adv-x="1000" d="M216 288H1000V145H216V288zM216 569H1000V426H216V568.9999999999999zM216 859H1000V716H216V859zM0 284H143V141.0000000000001H0V284zM0 569H143V426H0V568.9999999999999zM0 859H143V716H0V859z" />
    <glyph glyph-name="locate"
      unicode="&#xEA2C;"
      horiz-adv-x="1000" d="M585.5482009357291 0C582.5482009357291 0 580.5482009357291 0 577.5482009357291 0C547.5482009357291 3 521.5482009357291 23 512.5482009357291 52L368.5482009357292 355C365.5482009357292 361 360.5482009357292 366 354.5482009357292 369L52.5482009357291 513C23.5482009357291 523 3.5482009357291 548 0.5482009357291 578C-3.4517990642709 610 13.5482009357291 640 41.5482009357291 655L45.5482009357291 657L889.5482009357291 993C919.5482009357293 1007 953.5482009357293 1001 977.5482009357293 978C1000.5482009357293 955 1006.5482009357293 920 992.5482009357293 890L654.5482009357291 42C641.5482009357291 16 614.5482009357291 0 585.5482009357291 0zM110.5482009357291 595L389.5482009357292 463C414.5482009357292 451 434.5482009357292 431 445.5482009357292 407L577.5482009357291 128L887.5482009357291 906L110.5482009357291 595z" />
    <glyph glyph-name="location-add"
      unicode="&#xEA2D;"
      horiz-adv-x="1000" d="M500 1000C307 1000 150 843 150 650C150 388 500 0 500 0S850 388 850 650C850 843 693 1000 500 1000zM724 581H534V391H458.0000000000001V581H268.0000000000001V657H458.0000000000001V847H534V657H724V581z" />
    <glyph glyph-name="location-remove"
      unicode="&#xEA2E;"
      horiz-adv-x="1000" d="M500 1000C307 1000 150 843 150 650C150 388 500 0 500 0S850 388 850 650C850 843 693 1000 500 1000zM724 657V581H534L534 581H458.0000000000001L458.0000000000001 581H268.0000000000001V657" />
    <glyph glyph-name="location"
      unicode="&#xEA2F;"
      horiz-adv-x="1000" d="M500 1000C307 1000 150 843 150 650C150 388 500 0 500 0S850 388 850 650C850 843 693 1000 500 1000M500 525C431 525 375 581 375 650C375 719 431 775 500 775S625 719 625 650C625 581 569 525 500 525" />
    <glyph glyph-name="lock"
      unicode="&#xEA30;"
      horiz-adv-x="1000" d="M781 625H750V750C750 888 638 1000 500 1000S250 888 250 750V625H219C167 625 125 583 125 531V93.0000000000001C125 41.0000000000001 167 -1 219 -1H781C833 -1 875 41.0000000000001 875 93.0000000000001V531C875 583 833 625 781 625zM333 750C333 842 408 917 500 917S667 842 667 750V625H333V750zM542 303V208C542 185 523 166 500 166S458 185 458 208V303C433 317 416 343.9999999999999 416 375C416 421 453 458 498.9999999999999 458S581.9999999999999 421 581.9999999999999 375C583 344 566 318 542 303z" />
    <glyph glyph-name="logout"
      unicode="&#xEA31;"
      horiz-adv-x="1000" d="M224.0000000000001 378C208 372 190.0000000000001 375 179.0000000000001 387L12.0000000000001 554C-3.9999999999999 570 -3.9999999999999 597 12.0000000000001 613L179.0000000000001 780C191 792 209.0000000000001 795 224.0000000000001 789C240.0000000000001 782 250.0000000000001 767 250.0000000000001 750V625H417.0000000000001C440.0000000000001 625 459.0000000000001 606 459.0000000000001 583C459.0000000000001 560 440.0000000000001 541 417.0000000000001 541H250.0000000000001V416C250.0000000000001 400 240.0000000000001 385 224.0000000000001 378zM906.0000000000002 1000C907 1000 908.0000000000002 999 909 999C958.0000000000002 1003 1000 965 1000 916V166C1000 130 977 98.9999999999999 944 86.9999999999999L694 3.9999999999999C685 1 676.0000000000001 -1e-13 667 -1e-13C621 -1e-13 584 36.9999999999999 584 82.9999999999998V124.9999999999999H458.0000000000001C389.0000000000001 124.9999999999999 333.0000000000001 180.9999999999998 333.0000000000001 249.9999999999999V332.9999999999998C333.0000000000001 355.9999999999998 352 374.9999999999999 375.0000000000001 374.9999999999999S417.0000000000001 355.9999999999998 417.0000000000001 332.9999999999998V250C417.0000000000001 227 436.0000000000001 208 459.0000000000001 208H584.0000000000001V833C584.0000000000001 869 607.0000000000001 900 640.0000000000001 912L653.0000000000001 916H458.0000000000001C435.0000000000001 916 416 897 416 874V832C416 809 397 790 374 790S332 809 332 832V874C333.0000000000001 944 389.0000000000001 1000 458.0000000000001 1000H906.0000000000002z" />
    <glyph glyph-name="magnifier"
      unicode="&#xEA32;"
      horiz-adv-x="1000" d="M465.8928297996849 871C313.892829799685 870 181.892829799685 769 142.892829799685 623S167.892829799685 323 298.892829799685 248C429.892829799685 173 595.8928297996849 193.9999999999999 702.8928297996849 301C798.8928297996848 396 827.8928297996849 540 774.8928297996849 663.9999999999999C724.8928297996849 789 601.8928297996849 871 465.8928297996849 871zM813.8928297996849 263L963.892829799685 113C978.892829799685 98 983.892829799685 73.9999999999999 975.892829799685 53C966.892829799685 33 947.892829799685 18.9999999999999 925.892829799685 18.9999999999999C911.892829799685 18.9999999999999 897.892829799685 24.9999999999999 886.8928297996849 34.9999999999999L735.8928297996849 185C658.8928297996848 126 563.8928297996848 94 465.8928297996849 94C253.892829799685 93 69.892829799685 243 28.892829799685 449S96.892829799685 865 293.892829799685 946C489.8928297996849 1027 716.8928297996849 959 834.8928297996849 784C943.892829799685 623 932.892829799685 412 813.8928297996849 263z" />
    <glyph glyph-name="mail"
      unicode="&#xEA33;"
      horiz-adv-x="1000" d="M500 567L100 800H900L500 567zM900 200H100V700L500 450L900 700V200zM900 900H100C45 900 1 855 1 800L0 200C0 145 45 100 100 100H900C955 100 1000 145 1000 200V800C1000 855 955 900 900 900z" />
    <glyph glyph-name="map"
      unicode="&#xEA34;"
      horiz-adv-x="1000" d="M492 536C558 610 642 723 642 780C642 863 574 930 492 930S342 862 342 780C342 723 426 610 492 536zM492 1000C614 1000 713.0000000000001 901 713.0000000000001 779C713.0000000000001 666 538.0000000000001 480 518.0000000000001 459C511.0000000000001 452 502.0000000000001 448 493.0000000000001 448C483.0000000000001 448 474.0000000000001 452 468.0000000000001 459C448.0000000000001 480 273.0000000000001 665 273.0000000000001 779C272 901 371 1000 492 1000zM492 839C521 839 545 815 545 786C545 757 521 733 492 733C463.0000000000001 733 439.0000000000001 757 439.0000000000001 786C439 815 463 839 492 839zM913 156V711L766 654V99L913 156zM975 802C986 795 992 782 992 769V128.0000000000001C992 112.0000000000002 982 97.0000000000002 967 91.0000000000001L744 4C739 1.0000000000001 733.0000000000001 0 727 0C727 0 727 0 727 0C727 0 727 0 727 0C721.0000000000001 0 715 1 710 4L500 85L293 4C287 1.0000000000001 281 -1 275 -1C275 -1 275 -1 275 -1C275 -1 275 -1 275 -1C269 -1 262 1.0000000000001 257 4L33 91C18 96.9999999999999 8 111.9999999999999 8 128V769C8 782 15 795 25 802C36 810 50 811 62 806L205 750C206 720 216 688 230 655L87 711V156L233 98.9999999999999V648C254 603 283 557 314 515V99L459 156.0000000000001V360C469 356 481 354 491.9999999999999 354C509 354 526 359 539.9999999999999 368V155L686 98V536C733 603 773.9999999999999 679 778.9999999999999 744L938 806C950 811 964 810 975 802z" />
    <glyph glyph-name="minus"
      unicode="&#xEA35;"
      horiz-adv-x="1000" d="M67 567H933C970 567 1000 537 1000 500C1000 463 970 433 933 433H67C30 433 0 463 0 500C0 537 30 567 67 567z" />
    <glyph glyph-name="more"
      unicode="&#xEA36;"
      horiz-adv-x="1000" d="M500 625C569 625 625 569 625 500S569 375 500 375S375 431 375 500S431 625 500 625zM875 625C944 625 1000 569 1000 500S944 375 875 375C806 375 750 431 750 500S806 625 875 625zM125 625C194 625 250 569 250 500S194 375 125 375S0 431 0 500S56 625 125 625z" />
    <glyph glyph-name="navigate"
      unicode="&#xEA37;"
      horiz-adv-x="1000" d="M597.5 378V502H397.5V352H297.5V552C297.5 580 320.5 602 347.5 602H598.5V727L774.5 552L597.5 378zM985.5 535L535.5 985C515.5 1005 484.5 1005 464.5 985L14.5 535C-5.5 515 -5.5 484 14.5 464L464.5 14C484.5 -6 515.5 -6 535.5 14L985.5 464C1005.5 485 1005.5 515 985.5 535z" />
    <glyph glyph-name="parking"
      unicode="&#xEA38;"
      horiz-adv-x="1000" d="M801 922L801 922C754 970 689 1000 617 1000H171.0000000000001H170.0000000000001C143.0000000000001 1000 121.0000000000001 977 121.0000000000001 950V49C121.0000000000001 22 143.0000000000001 0 170.0000000000001 0C197.0000000000001 0 220.0000000000001 22 220.0000000000001 49V349H617C689 349 755 379 801 427C849 474 879 540 879 611V738C879 809 850 875 801 922zM781 610C781 566 762 525 733 496C703 466 662 448 618 448H220.0000000000001V902H617C661.0000000000002 902 703 882 732 854V854C762 825 780 784 780 739V610z" />
    <glyph glyph-name="password"
      unicode="&#xEA39;"
      horiz-adv-x="1000" d="M200 521C199 521 197 521 196 521H147L172 564C178.0000000000001 574 174 588 164 594C154 600 141 596 135 587C135 587 135 587 135 586L110 543L85 586C79 596 66 600 55 593.9999999999999C45 587.9999999999999 41 575 47 565L72 522H22C10 522 0 512 0 500C0 499 0 499 0 498C1 487 10 478 22 478H71L46 435C46 434 45 433 45 433C45 433 45 433 45 432C45 431 45 431 44 429.9999999999999C44 429.9999999999999 44 429.9999999999999 44 428.9999999999999C44 427.9999999999999 44 426.9999999999999 44 426.9999999999999C44 426.9999999999999 44 426.9999999999999 44 426.9999999999999C44 425.9999999999999 44 424.9999999999999 44 423.9999999999999C44 423.9999999999999 44 423.9999999999999 44 423.9999999999999C44 423.9999999999999 44 423.9999999999999 44 422.9999999999999C44 422.9999999999999 44 421.9999999999999 44 421.9999999999999C44 421.9999999999999 44 420.9999999999999 44 420.9999999999999C44 420.9999999999999 44 419.9999999999999 44 419.9999999999999C44 419.9999999999999 44 418.9999999999999 44 418.9999999999999C44 418.9999999999999 44 417.9999999999998 44 417.9999999999998C44 417.9999999999998 44 416.9999999999998 44 416.9999999999998C44 416.9999999999998 44 415.9999999999998 44 415.9999999999998C44 415.9999999999998 44 414.9999999999998 44 414.9999999999998C44 414.9999999999998 44 413.9999999999998 44 413.9999999999998C44 413.9999999999998 44 412.9999999999998 45 412.9999999999998C45 412.9999999999998 45 411.9999999999998 46 411.9999999999998C46 411.9999999999998 46 410.9999999999998 47 410.9999999999998C47 410.9999999999998 47 409.9999999999998 48 409.9999999999998C48 409.9999999999998 48 409.9999999999998 49 408.9999999999997C49 410 49 410 50 410C50 410 50 410 51 409C51 409 52 408 52 408C52 408 53 408 53 407C53 407 54 407 54 406C54 406 55 406 55 404.9999999999999C55 404.9999999999999 55 404.9999999999999 55 404.9999999999999C55 404.9999999999999 55 404.9999999999999 55 404.9999999999999C56 404.9999999999999 57 403.9999999999999 57 403.9999999999999C57 403.9999999999999 57 403.9999999999999 57 403.9999999999999C58 403.9999999999999 58 403.9999999999999 59 402.9999999999999C59 402.9999999999999 60 402.9999999999999 60 402.9999999999999C61 402.9999999999999 61 402.9999999999999 62 402.9999999999999C62 402.9999999999999 63 402.9999999999999 63 402.9999999999999C64 402.9999999999999 65 402.9999999999999 66 402.9999999999999C74 402.9999999999999 81 406.9999999999999 85 413.9999999999999L110 456.9999999999999L135 413.9999999999999C135 412.9999999999999 136 411.9999999999999 137 411.9999999999999C137 411.9999999999999 138 410.9999999999999 138 410.9999999999999C138 410.9999999999999 139 409.9999999999999 139 409.9999999999999C139 409.9999999999999 140 408.9999999999999 140 408.9999999999999C140 408.9999999999999 141 407.9999999999998 141 407.9999999999998C141 407.9999999999998 142 406.9999999999998 142 406.9999999999998C142 406.9999999999998 143 405.9999999999998 143 405.9999999999998C143 405.9999999999998 144 405.9999999999998 144 404.9999999999998C144 404.9999999999998 145 404.9999999999998 145 403.9999999999998C145 403.9999999999998 146 403.9999999999998 146 403.9999999999998C146 403.9999999999998 147 403.9999999999998 147 403.9999999999998C147 403.9999999999998 148 403.9999999999998 148 403.9999999999998C148 403.9999999999998 149 403.9999999999998 149 403.9999999999998C149 403.9999999999998 150 403.9999999999998 150 403.9999999999998C150 403.9999999999998 150.9999999999999 403.9999999999998 150.9999999999999 403.9999999999998C150.9999999999999 403.9999999999998 150.9999999999999 403.9999999999998 150.9999999999999 403.9999999999998C150.9999999999999 403.9999999999998 150.9999999999999 403.9999999999998 150.9999999999999 403.9999999999998C155 403.9999999999998 159 404.9999999999998 161.9999999999999 406.9999999999998C171.9999999999999 412.9999999999998 175.9999999999999 425.9999999999998 170 436.9999999999998L145 479.9999999999998H193.9999999999999C195 479.9999999999998 195 479.9999999999998 195.9999999999999 479.9999999999998C206.9999999999999 480.9999999999998 215.9999999999999 489.9999999999997 215.9999999999999 501.9999999999998C215.9999999999999 501.9999999999998 215.9999999999999 501.9999999999998 215.9999999999999 501.9999999999998S215.9999999999999 501.9999999999998 215.9999999999999 501.9999999999998C217 511 210 519 200 521zM152 403L152 403L152 403zM457 522H408.0000000000001L433.0000000000001 565C439.0000000000001 575 435.0000000000001 589 425.0000000000001 595C415.0000000000001 601 402.0000000000001 597 396.0000000000001 588C396.0000000000001 588 396.0000000000001 588 396.0000000000001 587L370 544L345 587C339 597 326 601 315 595C305 588.9999999999999 301 576 307 566L332 523H283.0000000000001H283.0000000000001C271.0000000000001 523 261.0000000000001 513 261.0000000000001 500.9999999999999C261.0000000000001 488.9999999999999 271.0000000000001 478.9999999999999 283.0000000000001 478.9999999999999H283.0000000000001H332L307 436C307 436 307 436 307 436C307 434.9999999999999 306 433.9999999999999 306 433.9999999999999C306 433.9999999999999 306 433.9999999999999 306 432.9999999999999C306 431.9999999999999 306 431.9999999999999 305 430.9999999999999C305 430.9999999999999 305 430.9999999999999 305 429.9999999999999C305 428.9999999999999 305 427.9999999999998 305 427.9999999999998C305 427.9999999999998 305 427.9999999999998 305 427.9999999999998C305 426.9999999999998 305 425.9999999999998 305 424.9999999999999C305 424.9999999999999 305 424.9999999999999 305 424.9999999999999C305 424.9999999999999 305 424.9999999999999 305 423.9999999999999C305 423.9999999999999 305 422.9999999999998 305 422.9999999999998C305 422.9999999999998 305 421.9999999999998 305 421.9999999999998C305 421.9999999999998 305 420.9999999999998 305 420.9999999999998C305 420.9999999999998 305 419.9999999999998 305 419.9999999999998C305 419.9999999999998 305 419.9999999999998 305 418.9999999999998C305 418.9999999999998 305 417.9999999999998 305 417.9999999999998C305 417.9999999999998 305 417.9999999999998 305 416.9999999999998C305 416.9999999999998 305 415.9999999999998 306 415.9999999999998C306 415.9999999999998 306 415.9999999999998 306 414.9999999999998C306 414.9999999999998 306 413.9999999999997 307 413.9999999999997C307 413.9999999999997 307 412.9999999999997 307 412.9999999999997C307 412.9999999999997 307 411.9999999999997 308.0000000000001 411.9999999999997C308.0000000000001 411.9999999999997 308.0000000000001 410.9999999999997 309.0000000000001 410.9999999999997C309.0000000000001 410.9999999999997 309.0000000000001 409.9999999999997 310.0000000000001 409.9999999999997C310.0000000000001 409.9999999999997 310.0000000000001 408.9999999999997 311.0000000000001 408.9999999999997C311.0000000000001 408.9999999999997 311.0000000000001 408.9999999999997 312.0000000000001 407.9999999999997C312.0000000000001 407.9999999999997 313.0000000000001 407.9999999999997 313.0000000000001 406.9999999999996C313.0000000000001 406.9999999999996 314.0000000000001 405.9999999999996 314.0000000000001 405.9999999999996C314.0000000000001 405.9999999999996 314.0000000000001 405.9999999999996 315.0000000000001 404.9999999999996C315.0000000000001 404.9999999999996 316.0000000000002 403.9999999999996 316.0000000000002 403.9999999999996C316.0000000000002 403.9999999999996 316.0000000000002 403.9999999999996 316.0000000000002 403.9999999999996C316.0000000000002 403.9999999999996 316.0000000000002 403.9999999999996 316.0000000000002 403.9999999999996C317.0000000000002 403.9999999999996 318.0000000000002 402.9999999999996 318.0000000000002 402.9999999999996C318.0000000000002 402.9999999999996 318.0000000000002 402.9999999999996 318.0000000000002 402.9999999999996C319.0000000000002 402.9999999999996 319.0000000000002 402.9999999999996 320.0000000000001 401.9999999999996C320.0000000000001 401.9999999999996 321.0000000000002 401.9999999999996 321.0000000000002 401.9999999999996C322.0000000000002 401.9999999999996 322.0000000000002 401.9999999999996 323.0000000000002 401.9999999999996C323.0000000000002 401.9999999999996 324.0000000000003 401.9999999999996 324.0000000000003 401.9999999999996C325.0000000000003 401.9999999999996 326.0000000000003 401.9999999999996 327.0000000000002 401.9999999999996C327.0000000000002 401.9999999999996 327.0000000000002 401.9999999999996 327.0000000000002 401.9999999999996C335.0000000000001 401.9999999999996 342.0000000000002 405.9999999999996 345.0000000000001 412.9999999999996L370.0000000000001 455.9999999999995L385.0000000000001 429.9999999999996L395.0000000000001 412.9999999999995C398.0000000000001 406.9999999999995 404.0000000000001 402.9999999999995 411.0000000000002 401.9999999999995C411.0000000000002 401.9999999999995 411.0000000000002 401.9999999999995 411.0000000000002 401.9999999999995C412.0000000000002 401.9999999999995 413.0000000000002 401.9999999999995 414.0000000000001 401.9999999999995C414.0000000000001 401.9999999999995 414.0000000000001 401.9999999999995 414.0000000000001 401.9999999999995C414.0000000000001 401.9999999999995 414.0000000000001 401.9999999999995 414.0000000000001 401.9999999999995C418.0000000000001 401.9999999999995 422.0000000000001 402.9999999999995 425.0000000000001 404.9999999999995C435.0000000000001 410.9999999999995 439.0000000000001 423.9999999999995 433.0000000000001 434.9999999999995L408.0000000000001 477.9999999999994H457.0000000000001C458.0000000000001 477.9999999999994 458.0000000000001 477.9999999999994 459.0000000000001 477.9999999999994C470.0000000000001 478.9999999999994 479.0000000000001 487.9999999999994 479.0000000000001 499.9999999999994C478 512 469 522 457 522zM413 403L413 403L413 403zM717 522H668L693 565C698.9999999999999 575 695 589 685 595C675 601 662 597 656 588C656 588 656 588 656 587L630 544L605 587C599 597 586 601 575 595C565 588.9999999999999 561 576 567 566L592 523H543H543C531 523 521 513 521 500.9999999999999C521 488.9999999999999 531 478.9999999999999 543 478.9999999999999H543H592L567 436C567 436 567 436 567 436C567 434.9999999999999 566 433.9999999999999 566 433.9999999999999C566 433.9999999999999 566 433.9999999999999 566 432.9999999999999C566 431.9999999999999 566 431.9999999999999 565 430.9999999999999C565 430.9999999999999 565 430.9999999999999 565 429.9999999999999C565 428.9999999999999 565 427.9999999999998 565 427.9999999999998C565 427.9999999999998 565 427.9999999999998 565 427.9999999999998C565 426.9999999999998 565 425.9999999999998 565 424.9999999999999C565 424.9999999999999 565 424.9999999999999 565 424.9999999999999C565 424.9999999999999 565 424.9999999999999 565 423.9999999999999C565 423.9999999999999 565 422.9999999999998 565 422.9999999999998C565 422.9999999999998 565 421.9999999999998 565 421.9999999999998C565 421.9999999999998 565 420.9999999999998 565 420.9999999999998C565 420.9999999999998 565 419.9999999999998 565 419.9999999999998C565 419.9999999999998 565 419.9999999999998 565 418.9999999999998C565 418.9999999999998 565 417.9999999999998 565 417.9999999999998C565 417.9999999999998 565 417.9999999999998 565 416.9999999999998C565 416.9999999999998 565 415.9999999999998 566 415.9999999999998C566 415.9999999999998 566 415.9999999999998 566 414.9999999999998C566 414.9999999999998 566 413.9999999999997 567 413.9999999999997C567 413.9999999999997 567 412.9999999999997 567 412.9999999999997C567 412.9999999999997 567 411.9999999999997 568 411.9999999999997C568 411.9999999999997 568 410.9999999999997 569 410.9999999999997C569 410.9999999999997 569 409.9999999999997 570.0000000000001 409.9999999999997C570.0000000000001 409.9999999999997 570.0000000000001 408.9999999999997 571.0000000000001 408.9999999999997C571.0000000000001 408.9999999999997 571.0000000000001 408.9999999999997 572.0000000000001 407.9999999999997C572.0000000000001 407.9999999999997 573.0000000000001 407.9999999999997 573.0000000000001 406.9999999999996C573.0000000000001 406.9999999999996 574.0000000000001 405.9999999999996 574.0000000000001 405.9999999999996C574.0000000000001 405.9999999999996 574.0000000000001 405.9999999999996 575.0000000000001 404.9999999999996C575.0000000000001 404.9999999999996 576.0000000000001 403.9999999999996 576.0000000000001 403.9999999999996C576.0000000000001 403.9999999999996 576.0000000000001 403.9999999999996 576.0000000000001 403.9999999999996C576.0000000000001 403.9999999999996 576.0000000000001 403.9999999999996 576.0000000000001 403.9999999999996C577.0000000000002 403.9999999999996 578.0000000000002 402.9999999999996 578.0000000000002 402.9999999999996C578.0000000000002 402.9999999999996 578.0000000000002 402.9999999999996 578.0000000000002 402.9999999999996C579.0000000000002 402.9999999999996 579.0000000000002 402.9999999999996 580.0000000000002 401.9999999999996C580.0000000000002 401.9999999999996 581.0000000000002 401.9999999999996 581.0000000000002 401.9999999999996C582.0000000000002 401.9999999999996 582.0000000000002 401.9999999999996 583.0000000000002 401.9999999999996C583.0000000000002 401.9999999999996 584.0000000000002 401.9999999999996 584.0000000000002 401.9999999999996C585.0000000000002 401.9999999999996 586.0000000000003 401.9999999999996 587.0000000000002 401.9999999999996C587.0000000000002 401.9999999999996 587.0000000000002 401.9999999999996 587.0000000000002 401.9999999999996C595.0000000000002 401.9999999999996 602.0000000000002 405.9999999999996 605.0000000000002 412.9999999999996L630.0000000000002 455.9999999999995L645.0000000000002 429.9999999999996L655.0000000000002 412.9999999999995C658.0000000000002 406.9999999999995 664.0000000000003 402.9999999999995 671.0000000000002 401.9999999999995C671.0000000000002 401.9999999999995 671.0000000000002 401.9999999999995 671.0000000000002 401.9999999999995C672.0000000000002 401.9999999999995 673.0000000000002 401.9999999999995 674.0000000000002 401.9999999999995C674.0000000000002 401.9999999999995 674.0000000000002 401.9999999999995 674.0000000000002 401.9999999999995C674.0000000000002 401.9999999999995 674.0000000000002 401.9999999999995 674.0000000000002 401.9999999999995C678.0000000000002 401.9999999999995 682.0000000000002 402.9999999999995 685.0000000000001 404.9999999999995C695.0000000000001 410.9999999999995 699.0000000000002 423.9999999999995 693.0000000000001 434.9999999999995L668.0000000000001 477.9999999999994H717.0000000000002C718.0000000000001 477.9999999999994 718.0000000000001 477.9999999999994 719.0000000000002 477.9999999999994C730.0000000000001 478.9999999999994 739.0000000000002 487.9999999999994 739.0000000000002 499.9999999999994C739 512 729 522 717 522zM674 403L674 403L674 403zM1000 500C1000 512 990 522 978 522H928.9999999999998L953.9999999999998 565C959.9999999999998 575 956 589 946 595C936 601 923 597 916.9999999999998 588C916.9999999999998 588 916.9999999999998 588 916.9999999999998 587L891.9999999999999 544L866.9999999999999 587C861 597 847.9999999999998 601 836.9999999999999 595C826.9999999999999 588.9999999999999 822.9999999999998 576 828.9999999999999 566L853.9999999999999 523H804.9999999999999C795.9999999999998 523 787.9999999999998 518 784.9999999999999 510C783.9999999999999 507 782.9999999999998 505 782.9999999999998 502C782.9999999999998 490 792.9999999999998 480 804.9999999999999 480H853.9999999999999L831 440L828.9999999999999 436C828.9999999999999 435 828 434 828 434C828 434 828 434 828 433C828 432 828 432 827 431C827 431 827 431 827 429.9999999999999C827 428.9999999999999 827 427.9999999999999 826.0000000000001 427C826.0000000000001 427 826.0000000000001 427 826.0000000000001 427C826.0000000000001 426 826.0000000000001 424.9999999999999 826.0000000000001 424C826.0000000000001 424 826.0000000000001 424 826.0000000000001 424C826.0000000000001 424 826.0000000000001 424 826.0000000000001 423C826.0000000000001 423 826.0000000000001 422 826.0000000000001 422C826.0000000000001 422 826.0000000000001 421 826.0000000000001 421C826.0000000000001 421 826.0000000000001 419.9999999999999 826.0000000000001 419.9999999999999C826.0000000000001 419.9999999999999 826.0000000000001 418.9999999999999 826.0000000000001 418.9999999999999C826.0000000000001 418.9999999999999 826.0000000000001 417.9999999999999 826.0000000000001 417.9999999999999C826.0000000000001 417.9999999999999 826.0000000000001 416.9999999999999 826.0000000000001 416.9999999999999C826.0000000000001 416.9999999999999 826.0000000000001 415.9999999999999 826.0000000000001 415.9999999999999C826.0000000000001 415.9999999999999 826.0000000000001 414.9999999999999 826.0000000000001 414.9999999999999C826.0000000000001 414.9999999999999 826.0000000000001 413.9999999999999 826.0000000000001 413.9999999999999C826.0000000000001 413.9999999999999 826.0000000000001 412.9999999999998 826.0000000000001 412.9999999999998C826.0000000000001 412.9999999999998 826.0000000000001 411.9999999999998 827 411.9999999999998C827 411.9999999999998 827 411.9999999999998 827 410.9999999999998C827 410.9999999999998 828 409.9999999999998 828 409.9999999999998C828 409.9999999999998 828 409.9999999999998 828 408.9999999999998C828 408.9999999999998 828.9999999999999 407.9999999999998 828.9999999999999 407.9999999999998C828.9999999999999 407.9999999999998 828.9999999999999 407.9999999999998 829.9999999999999 406.9999999999998C829.9999999999999 406.9999999999998 830.9999999999998 405.9999999999998 830.9999999999998 405.9999999999998C830.9999999999998 405.9999999999998 830.9999999999998 405.9999999999998 831.9999999999998 404.9999999999998C831.9999999999998 404.9999999999998 832.9999999999997 404.9999999999998 832.9999999999997 403.9999999999997C832.9999999999997 403.9999999999997 833.9999999999997 403.9999999999997 833.9999999999997 402.9999999999997C833.9999999999997 402.9999999999997 833.9999999999997 402.9999999999997 834.9999999999995 402.9999999999997C834.9999999999995 402.9999999999997 834.9999999999995 402.9999999999997 834.9999999999995 402.9999999999997C835.9999999999995 402.9999999999997 835.9999999999995 401.9999999999997 836.9999999999995 401.9999999999997C836.9999999999995 401.9999999999997 836.9999999999995 401.9999999999997 837.9999999999995 401.9999999999997C838.9999999999995 401.9999999999997 838.9999999999995 401.9999999999997 839.9999999999995 400.9999999999997C839.9999999999995 400.9999999999997 840.9999999999995 400.9999999999997 840.9999999999995 400.9999999999997C840.9999999999995 400.9999999999997 841.9999999999994 400.9999999999997 842.9999999999995 400.9999999999997C842.9999999999995 400.9999999999997 843.9999999999995 400.9999999999997 843.9999999999995 400.9999999999997C844.9999999999994 400.9999999999997 845.9999999999995 400.9999999999997 845.9999999999995 400.9999999999997C845.9999999999995 400.9999999999997 845.9999999999995 400.9999999999997 845.9999999999995 400.9999999999997C853.9999999999995 400.9999999999997 860.9999999999995 404.9999999999997 864.9999999999995 411.9999999999997L889.9999999999995 454.9999999999997L914.9999999999995 411.9999999999997C917.9999999999995 405.9999999999997 923.9999999999995 401.9999999999997 930.9999999999995 400.9999999999997C930.9999999999995 400.9999999999997 930.9999999999995 400.9999999999997 930.9999999999995 400.9999999999997C931.9999999999994 400.9999999999997 932.9999999999995 400.9999999999997 932.9999999999995 400.9999999999997C932.9999999999995 400.9999999999997 932.9999999999995 400.9999999999997 932.9999999999995 400.9999999999997C932.9999999999995 400.9999999999997 932.9999999999995 400.9999999999997 932.9999999999995 400.9999999999997C932.9999999999995 400.9999999999997 932.9999999999995 400.9999999999997 932.9999999999995 400.9999999999997C936.9999999999995 400.9999999999997 940.9999999999995 401.9999999999997 943.9999999999995 403.9999999999997C953.9999999999995 409.9999999999997 957.9999999999995 422.9999999999997 951.9999999999994 433.9999999999997L926.9999999999994 476.9999999999995H975.9999999999995C990 478 1000 488 1000 500C1000 500 1000 500 1000 500C1000 500 1000 500 1000 500zM935 403L935 403L935 403z" />
    <glyph glyph-name="pause"
      unicode="&#xEA3A;"
      horiz-adv-x="1000" d="M602 1000H907V0H602V1000zM93 1000H398V0H93V1000z" />
    <glyph glyph-name="pencil"
      unicode="&#xEA3B;"
      horiz-adv-x="1000" d="M-0.2500000000001 208V0H207.75L821.75 614L613.75 823L-0.2500000000001 208zM983.75 775C1005.75 797 1005.75 832 983.75 853L853.75 983C831.75 1005 796.75 1005 775.75 983L673.75 882L881.75 674L983.75 775z" />
    <glyph glyph-name="photo"
      unicode="&#xEA3C;"
      horiz-adv-x="1000" d="M1000 111V889C1000 950 950 1000 889 1000H111C50 1000 0 950 0 889V111.0000000000001C0 50 50 0 111 0H888.9999999999999C950 0 1000 50 1000 111zM306 417L445 250L639 500L889 167H111L306 417z" />
    <glyph glyph-name="quest"
      unicode="&#xEA3D;"
      horiz-adv-x="1000" d="M500 1000C224 1000 0 776 0 500S224 0 500 0C776 0 1000 224 1000 500S776 1000 500 1000zM450 150H550V250H450V150zM653 538L608 491.9999999999999C572 455 550 425 550 350H450V375C450 430 472 480 508 516L570 580C588 598 600 623 600 650C600 705 555 750 500 750C445 750 400 705 400 650H300C300 760 389 850 500 850S700 761 700 650C700 606 682 566 653 538z" />
    <glyph glyph-name="reload"
      unicode="&#xEA3E;"
      horiz-adv-x="1000" d="M831 500C831 271 645 84 415 84C186 84 0 271 0 500C0 729 186 916 416 916V754C276 754 163 640 163 500.9999999999999S277 248 416 248C556 248 669 362 669 500.9999999999999H491L745 755L1000 500H831z" />
    <glyph glyph-name="rent"
      unicode="&#xEA3F;"
      horiz-adv-x="1000" d="M586 119V0H423.0000000000001V121C318.0000000000001 143 229.0000000000001 211.9999999999999 222 333H342C348.0000000000001 267 392 216 503.9999999999999 216C624 216 651 276.9999999999999 651 315C651 367 624 416 487 449C335.0000000000001 487 231 550 231 678C231 786 316 855 422 879V1000H586V878C701 850 758 762 761 666H641C638 735 602 783 505 783C413.0000000000001 783 358.0000000000001 741 358.0000000000001 681C358.0000000000001 628 398.0000000000001 594 522 562C646 530 778 475 778 318.0000000000001C777 202 693 140 586 119" />
    <glyph glyph-name="save"
      unicode="&#xEA40;"
      horiz-adv-x="1000" d="M778 1000H111.0000000000001C49.0000000000001 1000 1e-13 950 1e-13 889V111.0000000000001C1e-13 50 49.0000000000001 0 111.0000000000001 0H889C950 0 1000 50 1000 111V778L778 1000zM500.0000000000001 111C408.0000000000001 111 333.0000000000001 185 333.0000000000001 278C333.0000000000001 370 407 445 500.0000000000001 445S667 370 667 278C667 186 592 111 500.0000000000001 111zM111.0000000000001 667H667V889H111.0000000000001V667z" />
    <glyph glyph-name="service"
      unicode="&#xEA41;"
      horiz-adv-x="1000" d="M500 980C235 980 20 765 20 500S235 20 500 20S980 235 980 500S765 980 500 980M500 815C580 815 644 751 644 671S580 527 500 527S356 591 356 671S420 815 500 815M500 133C380 133 274 193.9999999999999 212 288C213 384 404 436 500 436S787 383 788 288C726 195 620 133 500 133" />
    <glyph glyph-name="share"
      unicode="&#xEA42;"
      horiz-adv-x="1000" d="M757.9914514173377 705H585.9914514173377V645H757.9914514173377C776.9914514173377 645 792.9914514173377 630 792.9914514173377 610V94C792.9914514173377 75 777.9914514173377 59 757.9914514173377 59H241.9914514173376C222.9914514173376 59 206.9914514173376 74 206.9914514173376 94V611C206.9914514173376 630 221.9914514173376 646 241.9914514173376 646H402.9914514173376V706H241.9914514173376C189.9914514173376 706 147.9914514173376 664 147.9914514173376 612V96C147.9914514173376 43.9999999999999 189.9914514173376 1.9999999999999 241.9914514173376 1.9999999999999H757.9914514173377C809.9914514173377 1.9999999999999 851.9914514173377 43.9999999999999 851.9914514173377 96V611C852.9914514173377 663 809.9914514173377 705 757.9914514173377 705zM467.9914514173376 876L467.9914514173376 320L531.9914514173377 320L531.9914514173377 876L659.9914514173377 749L704.9914514173377 795L499.9914514173376 1000L294.9914514173376 795L339.9914514173376 749z" />
    <glyph glyph-name="speaker"
      unicode="&#xEA43;"
      horiz-adv-x="1000" d="M0 671V329H222L500 44V956L222 671H0zM750 500C750 601 693 688 611 730V271C693 312 750 399 750 500zM611 1000V883C772 834 889 681 889 500C889 319 772 166 611.0000000000001 117V0C834 52 1000 256 1000 500S834 948 611 1000z" />
    <glyph glyph-name="star"
      unicode="&#xEA44;"
      horiz-adv-x="1000" d="M666 651C649 651 633 663 627 680L537 971C532 988 516 1000 498.9999999999999 1000C481.9999999999999 1000 465.9999999999999 988 459.9999999999999 971L370 680C364 662 349 651 331 651H39.9999999999999C22.9999999999999 651 6.9999999999999 640 1.9999999999999 622C-4.0000000000001 605 1.9999999999999 585 15.9999999999999 575L253 394C267 383 273 364 268 347L178 55C174 42 176 28 184 17C192 6.0000000000001 204 0 217 0C226 0 234 3 241 8L475.9999999999999 186.9999999999999C489.9999999999999 197.9999999999998 509.9999999999999 197.9999999999998 524 186.9999999999999L759 7.9999999999998C766 2.9999999999998 774 -1e-13 783 -1e-13C796 -1e-13 808 5.9999999999998 816 16.9999999999999C824 27.9999999999998 826 41.9999999999999 822 54.9999999999999L732 346.9999999999999C727 363.9999999999999 732.9999999999999 382.9999999999999 747 393.9999999999999L984 575C998 586 1004 605 998 622C992.0000000000002 639 977.0000000000002 651 960.0000000000002 651H666z" />
    <glyph glyph-name="stopwatch"
      unicode="&#xEA45;"
      horiz-adv-x="1000" d="M319 1000H681.9999999999999V903H318.9999999999999V1000zM841 674L913.9999999999998 747L846 815L775 744C701 807 605 846 500 846C266 846 77 656 77 423S266 0 500 0S923 190 923 423C923 517 893 604 841 674zM500 103C323 103 179 246 179 424S323 744 500 744S821 601 821 423S677 103 500 103zM452 685H549V431H452V685z" />
    <glyph glyph-name="store"
      unicode="&#xEA46;"
      horiz-adv-x="1000" d="M110 820H890L896 820C921 823 940 844 940 870V880L940 886C937 916 911 940 880 940H120L114 940C84 937 60 911 60 880V870L60 864C63 839 84 820 110 820zM953 740L952 746C945 766 926.0000000000002 780 904 780H97L91 780C70 777 52 762 48 740L0 503V442L0 436C3 411 24 392 50 392H56V110L56 104C59 79 80 60 106 60H562L568 60C593 63 612 84 612 110V392H834V110L834 104C837 79 858.0000000000001 60 884 60H895L901 60C926 63 945 84 945 110V392H950L956 392C981 395 1000 416 1000 442V503.0000000000001L953 740zM460 270C460 242 438 220 410 220H250C222 220 200 242 200 270V330C200 358 222 380 250 380H410C438 380 460 358 460 330V270z" />
    <glyph glyph-name="take-off"
      unicode="&#xEA47;"
      horiz-adv-x="1000" d="M738.9668860100169 830C826.9668860100169 862 842.966886010017 861 866.9668860100169 856C873.9668860100169 855 879.9668860100169 853 891.9668860100169 854C927.9668860100168 855 953.9668860100168 851 971.9668860100168 841C989.9668860100168 832 996.9668860100168 819 998.9668860100168 810C1001.9668860100168 799 1004.9668860100168 758 912.966886010017 723L668.9668860100169 634L452.9668860100169 459C450.9668860100168 458 449.9668860100169 457 447.9668860100169 456L380.9668860100168 432C372.9668860100169 429 364.9668860100168 432 359.9668860100168 440C355.9668860100168 447 356.9668860100168 457 361.9668860100168 464L437.9668860100169 558L109.9668860100169 499C97.9668860100169 496.9999999999999 87.9668860100169 505 84.9668860100169 518C82.9668860100169 530 89.9668860100169 543 100.9668860100169 547C100.9668860100169 547 100.9668860100169 547 100.9668860100169 547L129.9668860100169 557L41.9668860100169 740C38.9668860100169 746 38.9668860100169 754 40.9668860100169 761C43.9668860100169 768 48.9668860100169 773 54.9668860100169 776L85.9668860100169 787C92.9668860100169 790 100.9668860100169 788 105.9668860100169 783L257.9668860100169 656.0000000000001L738.9668860100169 830zM580.9668860100169 246C605.9668860100169 246 625.9668860100169 223 625.9668860100169 193.9999999999999C625.9668860100169 164.9999999999999 605.9668860100169 141.9999999999999 580.9668860100169 141.9999999999999H44.9668860100169C19.9668860100169 142 -0.0331139899831 165 -0.0331139899831 194C-0.0331139899831 223.0000000000001 19.9668860100169 246.0000000000001 44.9668860100169 246.0000000000001H580.9668860100169z" />
    <glyph glyph-name="taxi"
      unicode="&#xEA48;"
      horiz-adv-x="1000" d="M953.5 555H951.5L849.5 792C842.4999999999999 808 826.5 819 808.5 819H684.5V887C684.5 912 664.5 932 639.5 932H356.5C331.5 932 311.5 912 311.5 887V819H188.5C170.5 819 154.5 808 147.5 792L45.5 555H43.5C18.5 555 -1.5 535 -1.5 510V436V240C-1.5 215 18.5 195 43.5 195H60.5V112C60.5 87 80.5 67 105.5 67H213.5C238.5 67 258.5 87 258.5 112V195H741.5V112C741.5 87 761.5 67 786.5 67H894.5C919.5 67 939.5 87 939.5 112V195H956.5C981.5 195 1001.5 215 1001.5 240V437V511C998.5 535 978.5 555 953.5 555zM218.5 730H778.5L853.5 555H143.5L218.5 730zM192.5 288C144.5 288 104.5 327 104.5 376C104.5 423.9999999999999 143.5 463.9999999999999 192.5 463.9999999999999C240.5 463.9999999999999 280.5 424.9999999999999 280.5 376C279.5 327 240.5 288 192.5 288zM802.5 288C754.5000000000001 288 714.5000000000001 327 714.5000000000001 376C714.5000000000001 423.9999999999999 753.5000000000001 463.9999999999999 802.5 463.9999999999999C850.5 463.9999999999999 890.5 424.9999999999999 890.5 376C889.5 327 850.5 288 802.5 288z" />
    <glyph glyph-name="tel"
      unicode="&#xEA49;"
      horiz-adv-x="1000" d="M201 567C281 410 410 282 567 201L689 323C704 338 726.0000000000001 343 746.0000000000001 336C808.0000000000001 315 875.0000000000001 303.9999999999999 944 303.9999999999999C975 303.9999999999999 1000 278.9999999999999 1000 248V54C1000 23.0000000000001 975 -1.9999999999999 944 -1.9999999999999C423 0 0 423 0 944C0 975 25 1000 56 1000H250C281 1000 306 975 306 944C306 875 317 808 338.0000000000001 746C344.0000000000001 727 340.0000000000001 705 324.0000000000001 689L201 567z" />
    </font>
</defs>
</svg>
