<?xml version="1.0" encoding="utf-8"?>
<!-- Generator: Adobe Illustrator 24.0.1, SVG Export Plug-In . SVG Version: 6.00 Build 0)  -->
<svg version="1.1" id="圖層_1" xmlns="http://www.w3.org/2000/svg" xmlns:xlink="http://www.w3.org/1999/xlink" x="0px" y="0px"
	 viewBox="0 0 100 100" style="enable-background:new 0 0 100 100;" xml:space="preserve">
<style type="text/css">
	.st0{fill-rule:evenodd;clip-rule:evenodd;fill:#202020;}
</style>
<title>map</title>
<desc>Created with Sketch.</desc>
<path class="st0" d="M51,15.3c14.8,0,28.2,10.7,28.2,23.8l0,6.2c3.4,2.2,5.6,6,5.6,10.3v2.8c0,5.4-3.5,10-8.3,11.7l0,4.1
	c0,5.6-3.8,9.2-9.5,9.2h-5.7v-5.2h5.7c3.3,0,4-1.5,4-4l0-3.3h-1.4V43.1H72c0.7,0,1.4,0.1,2.1,0.2l0-4.2c0-9.9-10.4-18.6-23.1-18.6
	c-12.7,0-22.2,9.6-22.2,18.6l0,4h1.8v27.8H28c-7,0-12.7-5.6-12.7-12.5v-2.8c0-5.4,3.5-10,8.3-11.7l0-4.8
	C23.6,25.9,36.2,15.3,51,15.3z M57.1,75c1.5,0,2.6,1.2,2.6,2.7V82c0,1.5-1.2,2.7-2.6,2.7h-8.6c-1.5,0-2.6-1.2-2.6-2.7v-4.4
	c0-1.5,1.2-2.7,2.6-2.7H57.1z M100,88.9V11.1C100,5,95,0,88.9,0H11.1C5,0,0,5,0,11.1v77.8C0,95,5,100,11.1,100h77.8
	C95,100,100,95,100,88.9z"/>
</svg>
