<?xml version="1.0" encoding="utf-8"?>
<!-- Generator: Adobe Illustrator 24.0.1, SVG Export Plug-In . SVG Version: 6.00 Build 0)  -->
<svg version="1.1" id="圖層_1" xmlns="http://www.w3.org/2000/svg" xmlns:xlink="http://www.w3.org/1999/xlink" x="0px" y="0px"
	 viewBox="0 0 100 100" style="enable-background:new 0 0 100 100;" xml:space="preserve">
<style type="text/css">
	.st0{fill-rule:evenodd;clip-rule:evenodd;}
</style>
<path class="st0" d="M59,51.2c0-0.4,0-0.8,0-1.1c8.5-3.9,14.5-13.2,14.5-24C73.5,11.6,63,0,50,0C37,0,26.5,11.6,26.5,26
	c0,10.8,5.9,20,14.4,24c0,0.4-0.1,0.8-0.1,1.2c0,8.8-30.8,8.8-30.8,28.9c0,7.4,17.9,19.9,39.9,19.9c22.1,0,39.9-12.5,39.9-19.9
	C89.9,60,59,60,59,51.2"/>
</svg>
