<?xml version="1.0" encoding="utf-8"?>
<!-- Generator: Adobe Illustrator 24.0.1, SVG Export Plug-In . SVG Version: 6.00 Build 0)  -->
<svg version="1.1" id="圖層_1" xmlns="http://www.w3.org/2000/svg" xmlns:xlink="http://www.w3.org/1999/xlink" x="0px" y="0px"
	 viewBox="0 0 100 100" style="enable-background:new 0 0 100 100;" xml:space="preserve">
<style type="text/css">
	.st0{fill-rule:evenodd;clip-rule:evenodd;fill:#202020;}
</style>
<g>
	<path class="st0" d="M64.6,24c4.6,0,8.3-3.7,8.3-8.3c0-4.6-3.7-8.3-8.3-8.3c-4.6,0-8.3,3.7-8.3,8.3C56.2,20.2,60,24,64.6,24z"/>
	<path class="st0" d="M20.8,51C9.2,51,0,60.2,0,71.9s9.2,20.8,20.8,20.8c11.7,0,20.8-9.2,20.8-20.8S32.5,51,20.8,51z M20.8,86.5
		c-7.9,0-14.6-6.7-14.6-14.6c0-7.9,6.7-14.6,14.6-14.6c7.9,0,14.6,6.7,14.6,14.6C35.4,79.8,28.7,86.5,20.8,86.5z"/>
	<path class="st0" d="M45,44.8l10-10l3.3,3.3c5.4,5.4,12.5,8.7,21.3,8.7v-8.3c-6.3,0-11.3-2.5-15-6.2l-7.9-7.9
		c-2.1-1.7-4.2-2.5-6.7-2.5c-2.5,0-4.6,0.8-5.8,2.5L32.5,36c-1.7,1.7-2.5,3.7-2.5,5.8c0,2.5,0.8,4.6,2.5,5.8l13.3,11.7v20.8h8.3
		V54.4L45,44.8z"/>
	<path class="st0" d="M79.2,51c-11.7,0-20.8,9.2-20.8,20.8s9.2,20.8,20.8,20.8c11.7,0,20.8-9.2,20.8-20.8S90.8,51,79.2,51z
		 M79.2,86.5c-7.9,0-14.6-6.7-14.6-14.6c0-7.9,6.7-14.6,14.6-14.6S93.7,64,93.7,71.9C93.7,79.8,87.1,86.5,79.2,86.5z"/>
</g>
</svg>
