<?xml version="1.0" encoding="utf-8"?>
<!-- Generator: Adobe Illustrator 24.0.1, SVG Export Plug-In . SVG Version: 6.00 Build 0)  -->
<svg version="1.1" id="圖層_1" xmlns="http://www.w3.org/2000/svg" xmlns:xlink="http://www.w3.org/1999/xlink" x="0px" y="0px"
	 viewBox="0 0 100 100" style="enable-background:new 0 0 100 100;" xml:space="preserve">
<style type="text/css">
	.st0{fill-rule:evenodd;clip-rule:evenodd;}
</style>
<title>map</title>
<desc>Created with Sketch.</desc>
<path class="st0" d="M35,21.7c-1.1,0-1.7,0.1-2.1,0.1v5.1h2.2c2.5,0,4-1.2,4-2.7C39.1,22.4,37.4,21.7,35,21.7z M34.9,30h-2V36
	c0.5,0.1,1.2,0.1,2,0.1c2.5,0,4.8-0.8,4.8-3.1C39.7,30.9,37.5,30,34.9,30z M33.9,20c2.3,0,3.8,0.4,5,1.3c0.9,0.7,1.5,1.8,1.5,3.2
	c0,1.8-1.2,3.3-3.1,4v0.1C39,28.9,41,30.4,41,33c0,1.6-0.6,2.8-1.6,3.6c-1.2,1.2-3.3,1.7-6.2,1.7c-1.6,0-2.9-0.1-3.6-0.2V20.4
	C30.6,20.2,32.2,20,33.9,20z M45,20v10.7c0,4,1.8,5.7,4.1,5.7c2.6,0,4.3-1.8,4.3-5.7V20h2.3v10.6c0,5.5-2.9,7.8-6.7,7.8
	c-3.6,0-6.4-2.1-6.4-7.7V20H45z M65.5,20c1.9,0,3.3,0.4,4.2,0.9L69,22.7c-0.6-0.3-1.8-0.8-3.6-0.8c-2.6,0-3.6,1.4-3.6,2.7
	c0,1.7,1.1,2.5,3.8,3.4c3.2,1.2,4.8,2.6,4.8,5.2c0,2.7-2.1,5.1-6.6,5.1c-1.8,0-3.8-0.5-4.8-1.2l0.6-1.9c1.1,0.7,2.7,1.2,4.4,1.2
	c2.5,0,4-1.2,4-3c0-1.6-1-2.6-3.6-3.5c-3.1-1.1-5-2.6-5-5.1C59.4,22.1,61.8,20,65.5,20z M50,0C34.2,0,21.4,13,21.4,29
	c0,14.8,11.1,26.9,25.3,28.6v35.8H29.1v6.7h41.7v-6.7H53.3V57.6C67.5,55.9,78.6,43.8,78.6,29C78.6,13,65.8,0,50,0z"/>
</svg>
