<?xml version="1.0" encoding="utf-8"?>
<!-- Generator: Adobe Illustrator 24.0.1, SVG Export Plug-In . SVG Version: 6.00 Build 0)  -->
<svg version="1.1" id="圖層_1" xmlns="http://www.w3.org/2000/svg" xmlns:xlink="http://www.w3.org/1999/xlink" x="0px" y="0px"
	 viewBox="0 0 100 100" style="enable-background:new 0 0 100 100;" xml:space="preserve">
<style type="text/css">
	.st0{fill-rule:evenodd;clip-rule:evenodd;}
</style>
<path class="st0" d="M50,0c13.8,0,26.3,5.6,35.3,14.7c9,9,14.7,21.5,14.7,35.3c0,13.8-5.6,26.3-14.7,35.4C76.3,94.5,63.8,100,50,100
	c-13.8,0-26.3-5.5-35.3-14.6C5.6,76.3,0,63.8,0,50c0-13.8,5.6-26.3,14.7-35.3C23.7,5.6,36.2,0,50,0z M47.7,92.3L47.7,92.3V76.1
	c-4.6,0.2-9,1.1-13,2.7c-0.6,0.2-1.2,0.4-1.7,0.7c0.4,0.7,0.7,1.4,1.1,2.1c2.6,4.6,5.6,8.1,9,10.2C44.5,92,46.1,92.2,47.7,92.3z
	 M79.9,20.1L79.9,20.1c-0.3-0.4-0.7-0.7-1.1-1c-1.8,1.4-3.8,2.6-5.9,3.7c2.7,7.1,4.4,15.7,4.7,24.9h14.6
	C91.6,37,87.1,27.3,79.9,20.1z M75.2,16.1L75.2,16.1c-2.7-2-5.5-3.7-8.6-5c1.2,1.6,2.3,3.3,3.4,5.2c0.4,0.7,0.8,1.5,1.2,2.3
	C72.5,17.8,73.9,17,75.2,16.1z M57,8.3L57,8.3c-1.5-0.2-3.1-0.4-4.7-0.5V24c4.6-0.2,9-1.2,13-2.7c0.6-0.2,1.1-0.4,1.7-0.7
	c-0.3-0.7-0.7-1.4-1.1-2.1C63.4,13.9,60.3,10.4,57,8.3z M47.7,7.8L47.7,7.8C46.1,7.9,44.5,8,43,8.3c-3.4,2.1-6.4,5.6-9,10.2
	c-0.4,0.7-0.7,1.4-1.1,2.1c0.6,0.2,1.1,0.5,1.7,0.7c4,1.5,8.4,2.5,13,2.7V7.8z M33.4,11.1L33.4,11.1c-3.1,1.3-5.9,3-8.6,5
	c1.3,0.9,2.7,1.7,4.1,2.6c0.4-0.8,0.8-1.6,1.2-2.3C31,14.4,32.2,12.7,33.4,11.1z M21.1,19.1L21.1,19.1c-0.3,0.3-0.7,0.7-1,1
	C12.9,27.3,8.3,37,7.7,47.7h14.6c0.3-9.2,2-17.8,4.7-24.9C24.9,21.7,23,20.5,21.1,19.1z M7.7,52.3L7.7,52.3
	c0.6,10.7,5.2,20.4,12.3,27.6l1,1c1.9-1.4,3.8-2.7,5.9-3.8c-2.7-7.2-4.4-15.7-4.7-24.9H7.7z M24.8,84L24.8,84c2.7,2,5.5,3.6,8.6,5
	c-1.2-1.5-2.4-3.3-3.4-5.2c-0.4-0.7-0.8-1.5-1.2-2.3C27.5,82.2,26.1,83.1,24.8,84z M52.3,92.3L52.3,92.3c1.6-0.1,3.2-0.3,4.7-0.5
	c3.4-2,6.4-5.6,9-10.2c0.4-0.7,0.8-1.4,1.1-2.1c-0.6-0.2-1.1-0.5-1.7-0.7c-4-1.6-8.4-2.5-13-2.7V92.3z M66.6,89L66.6,89
	c3.1-1.3,5.9-2.9,8.6-5c-1.3-0.9-2.7-1.8-4-2.5c-0.4,0.8-0.8,1.6-1.2,2.3C68.9,85.7,67.8,87.4,66.6,89z M78.9,81L78.9,81l1.1-1
	c7.1-7.2,11.7-16.9,12.3-27.6H77.7c-0.3,9.2-2,17.7-4.7,24.9C75.1,78.3,77,79.6,78.9,81z M68.8,24.8L68.8,24.8
	c-0.7,0.3-1.3,0.5-1.9,0.7c-4.6,1.7-9.5,2.8-14.6,3v19.2H73C72.8,39.2,71.3,31.4,68.8,24.8z M47.7,28.6L47.7,28.6
	c-5.1-0.2-10-1.3-14.6-3c-0.7-0.2-1.3-0.4-2-0.7c-2.5,6.6-4,14.4-4.2,22.9h20.8V28.6z M47.7,71.5L47.7,71.5V52.3H26.9
	c0.2,8.5,1.8,16.3,4.2,22.9c0.7-0.2,1.3-0.5,2-0.7C37.7,72.7,42.6,71.7,47.7,71.5z M52.3,71.5L52.3,71.5c5.1,0.2,10,1.3,14.6,3
	c0.7,0.2,1.3,0.5,1.9,0.7c2.5-6.6,4-14.4,4.2-22.9H52.3V71.5z"/>
</svg>
