<svg enable-background="new 0 0 100 100" viewBox="0 0 100 100" xmlns="http://www.w3.org/2000/svg"><path clip-rule="evenodd" d="m52.7 25.1c-.9.2-2 1-2.6 1.4-.6 1.2.7 1.6 1.1 2.4.5 1.3 2.3 1.3 2.6 2.7v.1c0 .4.5 2.9 4.3 4.4.1.1.3.1.4.2 1.2.5 2.4 1.1 3.6 1.2 1.5-.2 2.2-1.2 3.3-2.2 1.1-.6 2.6-1.4 2.6-3-1.1-1.2-1.3-2.7-1.9-4.1-1.1-.4-1.8-1.6-2.8-2l-3-1.6c-.9 0-2 .2-2.8-.4-1.8-1.6-2.9.9-4.8.9zm3.3-9.8c18.9 0 31.5 15.5 28.2 34.7-2.5 14.3-13.1 26.5-26.1 31.9-.1 0-.2.1-.4.2s-.4.1-.5.2c-.4.1-.8.2-1.2.3-.9.1-1.7 0-2.2-.1-.3-.1-.6-.2-.8-.3h-.1l-.6-.2c-4.6-2-4.3-6.8-4.3-7.2 0-.2.1-.4.1-.6-.2-.4.3-.8 0-1.1.1-.2.3-.4.3-.8 0-.2.2-.3.2-.4-.1-.3.4-.5.3-.7.2-.4.2-.8.5-1 0-.2.2-.3.2-.5.3-.2.3-.4.3-.7.1-.1.3-.2.2-.4 0-.1.1-.2.2-.2v-.2c-.2.1-.8-.1-.7.4-.2 0-.1.3-.3.3 0 .4-.4.4-.3.8-.3.2 0 .6-.4.8-.1.4-.4.6-.6.8-.1.1 0 .2-.1.2-.1-.2 0-.5.2-.7 0-.7.5-1.1.7-1.7 0-.3.3-.7.4-.9.3-.2.3-.6.4-1 .1-.5.4-.7.4-1.2.2-.2.2-.7.4-.8.2-.6.6-1 .8-1.5.2-.1.1-.4.3-.6.1-.3 0-.6.3-.8.4-.1.4-.6.7-.8.4-.4.7-1 1.3-1 .3.1.3-.1.5-.2.1 0 .2-.1.1-.2.5-.1.5-.5.7-.9.3-.2.3-.6.5-.8-.1-.3.2-.3.1-.6-.3-.1-.2.3-.3.4s-.4.2-.4.4c-.1.1-.1.3-.3.3-.1.2-.3.3-.2.5-.1-.1-.2-.1-.3 0-.2-.3.1-.5.1-.9.1-.2.3-.2.2-.4-.2 0-.2.2-.4.3-.1 0-.2.1-.2 0 0-.2 0-.5.3-.5.1-.2.3-.3.2-.5.3-.1.2-.4.6-.4 0-.1 0-.2-.1-.2 0 0 0-.1.1-.1v-.3c.2-.3.5-.4.8-.5-.1-.1.1-.3.1-.3 0-.4.5-.4.5-.8.3 0 .4-.2.6-.3 0-.2.3-.4.4-.5 0-.1 0-.1 0-.2.3-.1.4-.6.6-.8.1-.1.3-.2.2-.4 0-.1.1-.2.2-.2v-.1c-.1-.1.1-.1.2-.2.1-.4.7-.5.6-1.1-.1 0-.2.2-.3 0 .1-.2.2-.3.3-.5 0 .1.1.2.1.2.1 0 .3 0 .3-.1.1-.1.2-.2.4-.3 0-.1 0-.1-.1-.2l.1-.1c.3.1.2-.2.5-.3 0-.1 0-.1-.1-.2 0-.1.1-.1.2-.2.1 0 .2-.2.4-.2 0-.2.2-.2.2-.4.3-.3.4-.7.5-1.1.2-.1.1-.4.4-.5-.1-.2.2-.1.1-.3.1-.1.1-.1.2-.2 0-.2.1-.3.1-.4.1-.1.2-.2.3-.3 0-.3.2-.4.3-.6.3-.4.4-.8.6-1.2.3-.2.2-.6.2-.9-.1-.4-.1-.9-.1-1.3 0-1.3-2.7-.5-2.7-.5-.1.3-.5.1-.7.3-.2.1-.3.1-.5.2-.1.2-.5.2-.7.3-.1 0-.2.2-.4.2-.2.1-.4.1-.6.2-.1.2-.4 0-.4.3-.1 0-.2 0-.4.1-.1.2-.4.2-.5.2-.2.1-.2.3-.4.3 0 .2-.3 0-.4.1-.2.2-.6.1-.9.1l-.1.1c-.3-.1-.2.1-.4.2-.3 0-.5.2-.8.2-.1.1-.3.2-.5.3-.3 0-.4.2-.6.2-.1.1-.3 0-.4 0h-.1c-.3.2-.7 0-.9.2.6.1.1-.2.1.1-.1 0-.2.1-.4.1-.1 0-.1.2-.1.3-.3 0-.7.1-1 .3-.1.2-.3 0-.4.2-.2.1-.5.1-.7.1 0 .1-.1.1-.1.1-.3-.1-.3.2-.5.2 0 0 0 0 0-.1-.3 0-.4.2-.6.3-.2 0-.3.1-.4.1-.5-.1-.6.4-1 .3-.1.2-.5.1-.6.3-.3-.1-.6.1-.8.2-.3 0-.4.2-.7.2v.1c-.3 0-.3.2-.6.2-.2.2-.7.1-.9.4-.1.2-.3 0-.4.2-.2-.1-.3.1-.4.2-.2.3-.7.1-1 .3-.2-.1-.2.2-.5.1-.2 0-.2.1-.3.3-.2.1-.3.1-.5.1-.2.2-.5 0-.8.1-.1.2-.3.2-.4.5-.1.1-.3 0-.3-.1-.1 0-.2 0-.3.1-.2-.1-.3.2-.4.2v.1c-.1 0-.1.2-.2 0-.3 0-.4.2-.5.4-.1 0-.4-.2-.5 0 0 .2-.3.1-.4.2 0 .1 0 .2-.1.2-.3-.1-.5.1-.7.1-.2-.1-.3-.1-.5-.1v.2c-.2.1-.1.3-.4.2-.1.3-.1-.1-.3-.1-.2.1-.6 0-.7.3-.2 0-.3.1-.4.3-.1.5-.7.1-.9.4-.4-.4-.6.2-.8.2-.1.2-.4-.1-.5.2-.3 0-.6.2-.9.2-.1.1-.4.1-.5.3-.2 0-.3.1-.5.1-.3.1-.6.3-.9.4-.3 0-.3.3-.7.2-.2.1-.4.3-.7.3.1.3-.3.1-.3.2-.1.1-.3.1-.3.2-.3 0-.5.1-.7.2-.1.2-.3.1-.4.2s-.3 0-.3.2c-.2-.1-.3.1-.5.1-.2.2-.6.2-.8.4-.2 0-.3.1-.5.1-.1.2-.5.2-.7.3 0 0-.1.1-.2.1l-.3.1v.2c.1 0 .3 0 .3-.1.3 0 .6-.1.9-.1v-.1l.3-.1c.3.2.5-.2.8-.1v.1c0 .1-.1 0-.2.1-.1.2.1.2.2.4h.1c.1 0 0 .1 0 .1.4 0 .9-.1 1.3-.2.2.2.5 0 .8.1.2 0 .3-.2.5-.1.1.1.3.1.2.2 0 0 0 .1-.1.1v.2c.1 0 .3.1.3-.1.1.1.2 0 .3.1v-.2h-.1s0 0 0-.1c.1 0 .2 0 .2-.1 0 0-.1 0-.2 0 0-.1 0-.1.1-.2h.1c.2 0 .4.1.3.3h-.2v.1h.1c.1 0 .1-.1.1-.1.2 0 .4-.1.5.1h.7l.1-.2c.1 0 0 .1.1.1h.4c.1.1.2 0 .3.1h.3c-.1-.3.4-.2.3-.4h-.1s0 0 0-.1c.1.1.4 0 .5.1 0 .1.1.1.1.1.1-.2.4.1.6-.2.1 0 .3-.1.4 0 .1 0 .4 0 .3-.2h.3v-.2c0-.1.3.1.3 0v.1c.2.1.1-.1.3-.2.2 0 .3.2.5.2v.1c-.2 0-.2.2-.3.3 0-.1-.1-.1-.2-.1-.2-.1-.1.1-.2.2-.5.1-.8.4-1.3.3-.1.1-.1.2-.1.3-.1 0-.2-.1-.2.1 0-.1-.1-.1-.2-.1.1.2-.3.3-.1.5h.2c.1-.1.3-.1.3-.2s0-.2.2-.2c.1-.2.4-.2.6-.3.2.1.4.1.5.2-.1.1-.1.2-.2.1v.3c.2-.1.2.2.4.1.2-.2.4.1.6 0v-.1s0-.1.1 0v.1h.1c.1 0 .1-.1.1-.1h.4c.2 0 .3-.2.6-.1 0-.1.3 0 .2-.2.2 0 .4-.3.7-.2.2 0 .5 0 .5-.1h.1c.1 0 .3.1.3 0v.1h.2v-.1c.1-.1.2-.2.3-.2.1-.1.3.1.3-.1.2.1.4-.1.5-.1s.1-.1.1-.2v.1c.2 0 .3-.1.4-.1 0-.2.3 0 .3-.2.1.1.2 0 .3.1h.1c.1 0 0 0 .1-.1.3.1.8 0 1.2 0 .1-.1 0-.2.2-.3v.1c.3.1.5 0 .7 0v-.2c.2-.3.6-.1.8-.2.1-.2.5.1.4-.2.3-.1.5-.3.9-.2h.1c.2 0 .1-.2.2-.3.2.1.3-.2.5-.1.1-.1.4-.1.5-.2s.2-.1.3-.2h.4c0 .2-.4.3-.4.5-.1.1-.1.3-.3.2-.1 0-.3.1-.4.1l-.1.4h.1c0 .1-.1.2-.2.3-.1.3-.2.5-.3.9-.4 0 .1.5-.3.5-.2.6-.6.8-.8 1.4-.3.5-.5.9-.7 1.4-.2.1-.3.3-.3.6-.3.2-.2.7-.5.9-.1.2-.2.3-.2.5-.4.5-.6 1.2-.9 1.8 0 .2-.2.4-.2.6-.2 0 0 .4-.3.4-.1.2 0 .5-.2.7 0 .4-.4.6-.3.9-.1.2-.2.6-.4.8v.2c.2.3-.1.4 0 .7s-.2.4-.2.8c0 .1 0 .3.1.3-.2.2 0 .5 0 .7-.2.1-.2.4-.4.4.1.2-.4.2-.1.6h.2c.1.3-.2 0-.3.1v1.1c-.1.2-.2.4-.3.6 0 .3-.1.8-.2 1.2 0 .5-.1 1.2 0 1.7 0 .6.2 1.4.4 2.1.4 1.1.8 2.1 1.5 2.9.2.3.4.7.7.8.1.2.3.4.5.5.1.2.5.1.4.3.4.2.3.5.9.3.3 0 0 .4.3.4.3-.2.2.3.4.1.1.1.5.1.6.2l.8.3c.2.1 2 .5 5 .6-.2 0-.3.1-.5.1-1.5.2-2.9.3-4.4.3-18.9 0-31.5-15.5-28.2-34.7 1.6-9.1 6.5-17.4 13.2-23.6 7.5-6.8 17.2-11.1 27.1-11.1zm44 73.6v-77.8c0-6.1-5-11.1-11.1-11.1h-77.8c-6.1 0-11.1 5-11.1 11.1v77.8c0 6.1 5 11.1 11.1 11.1h77.8c6.1 0 11.1-5 11.1-11.1z" fill-rule="evenodd"/></svg>