<?xml version="1.0" encoding="utf-8"?>
<!-- Generator: Adobe Illustrator 24.0.1, SVG Export Plug-In . SVG Version: 6.00 Build 0)  -->
<svg version="1.1" id="圖層_1" xmlns="http://www.w3.org/2000/svg" xmlns:xlink="http://www.w3.org/1999/xlink" x="0px" y="0px"
	 viewBox="0 0 100 100" style="enable-background:new 0 0 100 100;" xml:space="preserve">
<style type="text/css">
	.st0{fill-rule:evenodd;clip-rule:evenodd;}
</style>
<path class="st0" d="M100,71.3c-0.3-3-1.8-5.9-4.3-8.4L76.8,44.1c-1.8-1.8-4.5-2.7-7.5-2.5c-2.9,0.2-5.5,1.4-7.5,3.3l-4.7,4.6
	l-6.6-6.6l4.9-4.9c4.2-4.2,4.2-11,0-15.2L35.8,3.1c-4.2-4.2-11-4.2-15.2,0L3.2,20.5c-4.2,4.2-4.2,11,0,15.2L23,55.5
	c2.1,2.1,4.9,3.1,7.6,3.1s5.5-1,7.6-3.1l4.9-4.9l6.6,6.6l-4.6,4.6c-2.1,2.1-3.3,5-3.2,8.1c0.1,3,1.3,5.8,3.4,7.9l18.8,18.8
	c2.1,2.1,4.9,3.3,7.9,3.4c0.1,0,0.2,0,0.3,0c3,0,5.7-1.1,7.8-3.2L97,80C99.2,77.7,100.3,74.6,100,71.3z M26.8,51.7l3.8-3.8h0
	L26.8,51.7z M30.6,47.9L10.8,28.1l17.4-17.4L48,30.5l-4.9,4.9l-9.9-9.9c-2.1-2.1-5.5-2.1-7.6,0c-2.1,2.1-2.1,5.5,0,7.6l9.9,9.9
	L30.6,47.9z M72.5,89.2c0,0-0.1,0-0.2,0c-0.1,0-0.3,0-0.6-0.3h0L52.9,70.2c-0.2-0.2-0.3-0.5-0.3-0.6c0-0.1,0-0.2,0-0.2l4.6-4.6
	l9.9,9.9c1,1,2.4,1.6,3.8,1.6c1.4,0,2.8-0.5,3.8-1.6c2.1-2.1,2.1-5.5,0-7.6l-9.9-9.9l4.7-4.7c0.1-0.1,0.2-0.1,0.4-0.2L88,70.5
	c0.9,0.9,1.2,1.6,1.2,1.9L72.5,89.2z"/>
</svg>
