<?xml version="1.0" encoding="utf-8"?>
<!-- Generator: Adobe Illustrator 24.0.1, SVG Export Plug-In . SVG Version: 6.00 Build 0)  -->
<svg version="1.1" id="圖層_1" xmlns="http://www.w3.org/2000/svg" xmlns:xlink="http://www.w3.org/1999/xlink" x="0px" y="0px"
	 viewBox="0 0 100 100" style="enable-background:new 0 0 100 100;" xml:space="preserve">
<style type="text/css">
	.st0{fill-rule:evenodd;clip-rule:evenodd;}
</style>
<path class="st0" d="M58.6,100c-0.3,0-0.5,0-0.8,0c-3-0.3-5.6-2.3-6.5-5.2L36.9,64.5c-0.3-0.6-0.8-1.1-1.4-1.4L5.3,48.7
	c-2.9-1-4.9-3.5-5.2-6.5C-0.3,39,1.4,36,4.2,34.5l0.4-0.2L89,0.7c3-1.4,6.4-0.8,8.8,1.5c2.3,2.3,2.9,5.8,1.5,8.8L65.5,95.8
	C64.2,98.4,61.5,100,58.6,100z M11.1,40.5l27.9,13.2c2.5,1.2,4.5,3.2,5.6,5.6l13.2,27.9l31-77.8L11.1,40.5z"/>
</svg>
