<?xml version="1.0" encoding="utf-8"?>
<!-- Generator: Adobe Illustrator 24.0.1, SVG Export Plug-In . SVG Version: 6.00 Build 0)  -->
<svg version="1.1" id="圖層_1" xmlns="http://www.w3.org/2000/svg" xmlns:xlink="http://www.w3.org/1999/xlink" x="0px" y="0px"
	 viewBox="0 0 100 100" style="enable-background:new 0 0 100 100;" xml:space="preserve">
<style type="text/css">
	.st0{fill-rule:evenodd;clip-rule:evenodd;fill:#231815;}
</style>
<path class="st0" d="M46.6,12.9C31.4,13,18.2,23.1,14.3,37.7s2.5,30,15.6,37.5c13.1,7.5,29.7,5.4,40.4-5.3
	c9.6-9.5,12.5-23.9,7.2-36.3C72.5,21.1,60.2,12.9,46.6,12.9z M81.4,73.7l15,15c1.5,1.5,2,3.9,1.2,6c-0.9,2-2.8,3.4-5,3.4
	c-1.4,0-2.8-0.6-3.9-1.6L73.6,81.5c-7.7,5.9-17.2,9.1-27,9.1C25.4,90.7,7,75.7,2.9,55.1S9.7,13.5,29.4,5.4
	C49-2.7,71.7,4.1,83.5,21.6C94.4,37.7,93.3,58.8,81.4,73.7z"/>
</svg>
