<?xml version="1.0" encoding="utf-8"?>
<!-- Generator: Adobe Illustrator 24.0.1, SVG Export Plug-In . SVG Version: 6.00 Build 0)  -->
<svg version="1.1" id="圖層_1" xmlns="http://www.w3.org/2000/svg" xmlns:xlink="http://www.w3.org/1999/xlink" x="0px" y="0px"
	 viewBox="0 0 100 100" style="enable-background:new 0 0 100 100;" xml:space="preserve">
<style type="text/css">
	.st0{fill-rule:evenodd;clip-rule:evenodd;fill:#202020;}
</style>
<path class="st0" d="M80.1,7.8L80.1,7.8C75.4,3,68.9,0,61.7,0H17.1H17c-2.7,0-4.9,2.3-4.9,5v90.1c0,2.7,2.2,4.9,4.9,4.9
	c2.7,0,5-2.2,5-4.9V65.1h39.7c7.2,0,13.8-3,18.4-7.8c4.8-4.7,7.8-11.3,7.8-18.4V26.2C87.9,19.1,85,12.5,80.1,7.8z M78.1,39
	c0,4.4-1.9,8.5-4.8,11.4c-3,3-7.1,4.8-11.5,4.8H22V9.8h39.7c4.4,0,8.6,2,11.5,4.8v0c3,2.9,4.8,7,4.8,11.5V39z"/>
</svg>
