<?xml version="1.0" encoding="utf-8"?>
<!-- Generator: Adobe Illustrator 21.0.0, SVG Export Plug-In . SVG Version: 6.00 Build 0)  -->
<svg version="1.1" id="圖層_1" xmlns="http://www.w3.org/2000/svg" xmlns:xlink="http://www.w3.org/1999/xlink" x="0px" y="0px"
	 viewBox="0 0 100 100" style="enable-background:new 0 0 100 100;" xml:space="preserve">
<g>
	<path d="M75.8,29.5H58.6v6h17.2c1.9,0,3.5,1.5,3.5,3.5v51.6c0,1.9-1.5,3.5-3.5,3.5H24.2c-1.9,0-3.5-1.5-3.5-3.5V38.9
		c0-1.9,1.5-3.5,3.5-3.5h16.1v-6H24.2c-5.2,0-9.4,4.2-9.4,9.4v51.6c0,5.2,4.2,9.4,9.4,9.4h51.6c5.2,0,9.4-4.2,9.4-9.4V38.9
		C85.3,33.7,81,29.5,75.8,29.5z"/>
	<polygon points="46.8,12.4 46.8,68 53.2,68 53.2,12.4 66,25.1 70.5,20.5 50,0 29.5,20.5 34,25.1 	"/>
</g>
</svg>
