<?xml version="1.0" encoding="utf-8"?>
<!-- Generator: Adobe Illustrator 24.0.1, SVG Export Plug-In . SVG Version: 6.00 Build 0)  -->
<svg version="1.1" id="圖層_1" xmlns="http://www.w3.org/2000/svg" xmlns:xlink="http://www.w3.org/1999/xlink" x="0px" y="0px"
	 viewBox="0 0 100 100" style="enable-background:new 0 0 100 100;" xml:space="preserve">
<style type="text/css">
	.st0{fill-rule:evenodd;clip-rule:evenodd;}
</style>
<path class="st0" d="M66.7,34.9c-1.7,0-3.3-1.2-3.9-2.9l-9-29.1C53.3,1.2,51.7,0,50,0c-1.7,0-3.3,1.2-3.9,2.9l-9,29.1
	c-0.6,1.8-2.1,2.9-3.9,2.9H4.1c-1.7,0-3.3,1.1-3.8,2.9c-0.6,1.7,0,3.7,1.4,4.7l23.7,18.1c1.4,1.1,2,3,1.5,4.7l-9,29.2
	c-0.4,1.3-0.2,2.7,0.6,3.8c0.8,1.1,2,1.7,3.3,1.7c0.9,0,1.7-0.3,2.4-0.8l23.5-17.9c1.4-1.1,3.4-1.1,4.8,0l23.5,17.9
	c0.7,0.5,1.5,0.8,2.4,0.8c1.3,0,2.5-0.6,3.3-1.7c0.8-1.1,1-2.5,0.6-3.8l-9-29.2c-0.5-1.7,0.1-3.6,1.5-4.7l23.7-18.1
	c1.4-1.1,2-3,1.4-4.7c-0.6-1.7-2.1-2.9-3.8-2.9H66.7z"/>
</svg>
