<?xml version="1.0" encoding="utf-8"?>
<!-- Generator: Adobe Illustrator 24.0.1, SVG Export Plug-In . SVG Version: 6.00 Build 0)  -->
<svg version="1.1" id="圖層_1" xmlns="http://www.w3.org/2000/svg" xmlns:xlink="http://www.w3.org/1999/xlink" x="0px" y="0px"
	 viewBox="0 0 100 100" style="enable-background:new 0 0 100 100;" xml:space="preserve">
<style type="text/css">
	.st0{fill-rule:evenodd;clip-rule:evenodd;fill:#202020;}
</style>
<g>
	<path class="st0" d="M75.3,0c-6.6,0-12,5.4-12,12c0,6.6,5.4,12,12,12c6.6,0,12-5.4,12-12C87.3,5.4,81.9,0,75.3,0z"/>
	<path class="st0" d="M25.3,0c-6.6,0-12,5.4-12,12c0,6.6,5.4,12,12,12c6.6,0,12-5.4,12-12C37.3,5.4,31.9,0,25.3,0z"/>
	<path class="st0" d="M75.3,28c-11,0-20,9-20,20l0,24.3l0,0.6c0.3,2.5,2.4,4.4,4.9,4.4l6,0.1V95l0,0.6c0.3,2.5,2.4,4.4,5,4.4h10.1
		l0.6,0c2.5-0.3,4.4-2.4,4.4-5V77.3h6l0.6,0c2.5-0.3,4.4-2.4,4.4-5V48l0-1c-0.5-10.6-9.3-19-20-19L75.3,28z"/>
	<path class="st0" d="M34.6,28H18.1l-0.6,0c-2,0.2-3.7,1.7-4.2,3.7L2.9,71l-0.1,0.6c-0.4,2.5,1.2,4.9,3.7,5.5
		c0.4,0.1,0.8,0.2,1.3,0.2l11.2,0V95l0,0.6c0.3,2.5,2.4,4.4,5,4.4h5.2l0.6,0c2.5-0.3,4.4-2.4,4.4-5V77.3h10.7l0.6,0
		c2.5-0.3,4.4-2.4,4.4-5c0-0.4-0.1-0.8-0.2-1.3L39.4,31.7l-0.2-0.5C38.5,29.3,36.7,28,34.6,28z"/>
</g>
</svg>
