<?xml version="1.0" encoding="utf-8"?>
<!-- Generator: Adobe Illustrator 24.0.1, SVG Export Plug-In . SVG Version: 6.00 Build 0)  -->
<svg version="1.1" id="圖層_1" xmlns="http://www.w3.org/2000/svg" xmlns:xlink="http://www.w3.org/1999/xlink" x="0px" y="0px"
	 viewBox="0 0 100 100" style="enable-background:new 0 0 100 100;" xml:space="preserve">
<style type="text/css">
	.st0{fill-rule:evenodd;clip-rule:evenodd;}
</style>
<path class="st0" d="M50,0c12,0,23,4.6,31.8,12.5c8.8,7.9,15.3,19,18.1,31.8c0.5,2.1-0.8,4.3-2.9,4.7C96.8,49,96.6,49,96.4,49
	c-3.6,0.2-7.1,1-10.4,2.3c-3.4,1.4-6.6,3.3-9.4,5.6c-1.4,1.1-3.4,1.1-4.8,0c-3.1-2.6-6.6-4.6-10.3-6c-2.5-0.8-5-1.5-7.6-1.8V89
	c0,6-4.9,11-10.6,11c-5.9,0-10.7-5-10.7-11c0-2.2,1.7-4,3.8-4c2.1,0,3.9,1.8,3.9,4c0,1.7,1.3,3.1,3,3.1c1.6,0,2.9-1.4,2.9-3.1V49.2
	c-2.6,0.3-5.1,1-7.6,1.8c-3.7,1.4-7.2,3.4-10.3,6c-1.5,1.2-3.6,1.1-4.9-0.2c-2.8-2.3-6-4.2-9.3-5.5C10.7,50,7.2,49.3,3.6,49
	c-2.1-0.1-3.7-2-3.6-4.2c0-0.3,0.1-0.6,0.1-0.8c2.8-12.7,9.3-23.7,18-31.6C27,4.6,38,0,50,0"/>
</svg>
