<?xml version="1.0" encoding="utf-8"?>
<!-- Generator: Adobe Illustrator 21.0.0, SVG Export Plug-In . SVG Version: 6.00 Build 0)  -->
<svg version="1.1" id="圖層_1" xmlns="http://www.w3.org/2000/svg" xmlns:xlink="http://www.w3.org/1999/xlink" x="0px" y="0px"
	 viewBox="0 0 100 100" style="enable-background:new 0 0 100 100;" xml:space="preserve">
<g>
	<path d="M99.6,48.3C90.4,29.5,70.9,17.5,50,17.5C29,17.5,9.7,29.5,0.4,48.3c-0.5,1-0.6,2.3,0,3.4C9.7,70.5,29,82.5,50,82.5
		c20.9,0,40.4-12.1,49.6-30.8C100.1,50.7,100.1,49.4,99.6,48.3z M50,77c-14.9,0-27-12.2-27-27c0-14.9,12.1-27,27-27
		c14.8,0,27,12.1,27,27C77,64.8,64.8,77,50,77z"/>
	<path d="M50,29c-11.6,0-21,9.4-21,21c0,11.5,9.4,21,21,21c11.5,0,21-9.5,21-21C71,38.4,61.5,29,50,29z"/>
</g>
</svg>
